<svg width="202" height="63" viewBox="0 0 202 63" fill="none" xmlns="http://www.w3.org/2000/svg">
<rect width="202" height="62.5915" rx="11.3803" fill="#33303E"/>
<path d="M68.8287 24.5785C68.7364 24.5785 68.6652 24.5533 68.6149 24.503C68.5645 24.4443 68.5394 24.373 68.5394 24.2892V16.0755C68.5394 15.9833 68.5645 15.912 68.6149 15.8617C68.6652 15.803 68.7364 15.7737 68.8287 15.7737H71.684C72.5477 15.7737 73.2437 15.9036 73.772 16.1636C74.3003 16.4235 74.686 16.8093 74.9292 17.3208C75.1723 17.8239 75.2981 18.4445 75.3065 19.1824C75.3149 19.5597 75.3191 19.891 75.3191 20.1761C75.3191 20.4612 75.3149 20.7882 75.3065 21.1572C75.2897 21.9287 75.1598 22.5702 74.9166 23.0817C74.6818 23.5848 74.3044 23.9622 73.7845 24.2137C73.273 24.4569 72.5938 24.5785 71.7469 24.5785H68.8287ZM69.7721 23.5093H71.684C72.2626 23.5093 72.7238 23.4297 73.0676 23.2703C73.4114 23.111 73.6588 22.8553 73.8097 22.5031C73.969 22.1509 74.0529 21.6855 74.0613 21.1069C74.078 20.8553 74.0864 20.6373 74.0864 20.4528C74.0864 20.2599 74.0864 20.0713 74.0864 19.8868C74.0864 19.6939 74.078 19.4759 74.0613 19.2327C74.0445 18.4193 73.8516 17.8197 73.4827 17.434C73.1137 17.0399 72.4932 16.8428 71.6211 16.8428H69.7721V23.5093ZM79.7272 24.7043C79.0899 24.7043 78.5574 24.5827 78.1298 24.3395C77.7021 24.0963 77.3751 23.7609 77.1486 23.3332C76.9222 22.8972 76.7965 22.4024 76.7713 21.849C76.7629 21.7064 76.7587 21.5262 76.7587 21.3081C76.7587 21.0817 76.7629 20.9014 76.7713 20.7673C76.7965 20.2054 76.9222 19.7107 77.1486 19.283C77.3834 18.8554 77.7147 18.5199 78.1423 18.2768C78.57 18.0336 79.0983 17.912 79.7272 17.912C80.3561 17.912 80.8844 18.0336 81.3121 18.2768C81.7397 18.5199 82.0668 18.8554 82.2932 19.283C82.528 19.7107 82.658 20.2054 82.6831 20.7673C82.6915 20.9014 82.6957 21.0817 82.6957 21.3081C82.6957 21.5262 82.6915 21.7064 82.6831 21.849C82.658 22.4024 82.5322 22.8972 82.3058 23.3332C82.0793 23.7609 81.7523 24.0963 81.3247 24.3395C80.897 24.5827 80.3645 24.7043 79.7272 24.7043ZM79.7272 23.7357C80.2471 23.7357 80.6622 23.5722 80.9725 23.2452C81.2827 22.9098 81.4504 22.4234 81.4756 21.7861C81.484 21.6603 81.4882 21.501 81.4882 21.3081C81.4882 21.1153 81.484 20.9559 81.4756 20.8302C81.4504 20.1929 81.2827 19.7107 80.9725 19.3836C80.6622 19.0482 80.2471 18.8805 79.7272 18.8805C79.2073 18.8805 78.788 19.0482 78.4694 19.3836C78.1591 19.7107 77.9956 20.1929 77.9788 20.8302C77.9704 20.9559 77.9662 21.1153 77.9662 21.3081C77.9662 21.501 77.9704 21.6603 77.9788 21.7861C77.9956 22.4234 78.1591 22.9098 78.4694 23.2452C78.788 23.5722 79.2073 23.7357 79.7272 23.7357ZM85.8346 24.5785C85.7256 24.5785 85.6417 24.5533 85.583 24.503C85.5243 24.4443 85.474 24.3647 85.4321 24.264L83.6459 18.4277C83.6292 18.3858 83.6208 18.3438 83.6208 18.3019C83.6208 18.2264 83.6459 18.1636 83.6963 18.1132C83.755 18.0629 83.8178 18.0378 83.8849 18.0378H84.4384C84.5306 18.0378 84.6019 18.0629 84.6522 18.1132C84.7025 18.1636 84.7361 18.2097 84.7528 18.2516L86.149 22.9936L87.6458 18.3019C87.6626 18.2432 87.6962 18.1845 87.7465 18.1258C87.8052 18.0671 87.889 18.0378 87.998 18.0378H88.4257C88.5347 18.0378 88.6186 18.0671 88.6773 18.1258C88.736 18.1845 88.7695 18.2432 88.7779 18.3019L90.2747 22.9936L91.6709 18.2516C91.6793 18.2097 91.7086 18.1636 91.759 18.1132C91.8093 18.0629 91.8805 18.0378 91.9728 18.0378H92.5262C92.6017 18.0378 92.6646 18.0629 92.7149 18.1132C92.7652 18.1636 92.7904 18.2264 92.7904 18.3019C92.7904 18.3438 92.782 18.3858 92.7652 18.4277L90.9791 24.264C90.9539 24.3647 90.9078 24.4443 90.8407 24.503C90.782 24.5533 90.694 24.5785 90.5766 24.5785H90.086C89.977 24.5785 89.8848 24.5533 89.8093 24.503C89.7422 24.4443 89.6961 24.3647 89.671 24.264L88.2119 19.761L86.7528 24.264C86.7192 24.3647 86.6689 24.4443 86.6018 24.503C86.5348 24.5533 86.4425 24.5785 86.3251 24.5785H85.8346ZM94.4728 24.5785C94.389 24.5785 94.3177 24.5533 94.259 24.503C94.2087 24.4443 94.1835 24.373 94.1835 24.2892V18.3271C94.1835 18.2432 94.2087 18.1761 94.259 18.1258C94.3177 18.0671 94.389 18.0378 94.4728 18.0378H95.064C95.1479 18.0378 95.2149 18.0671 95.2653 18.1258C95.324 18.1761 95.3533 18.2432 95.3533 18.3271V18.8805C95.5713 18.5954 95.8439 18.3648 96.1709 18.1887C96.5063 18.0042 96.934 17.912 97.4539 17.912C97.9989 17.912 98.4601 18.0336 98.8375 18.2768C99.2232 18.5115 99.5125 18.8428 99.7054 19.2704C99.8983 19.6897 99.9947 20.1803 99.9947 20.7421V24.2892C99.9947 24.373 99.9695 24.4443 99.9192 24.503C99.8689 24.5533 99.8018 24.5785 99.718 24.5785H99.0891C99.0052 24.5785 98.9339 24.5533 98.8752 24.503C98.8249 24.4443 98.7998 24.373 98.7998 24.2892V20.805C98.7998 20.218 98.6572 19.761 98.3721 19.434C98.087 19.0985 97.6677 18.9308 97.1143 18.9308C96.5944 18.9308 96.1751 19.0985 95.8564 19.434C95.5462 19.761 95.391 20.218 95.391 20.805V24.2892C95.391 24.373 95.3617 24.4443 95.303 24.503C95.2527 24.5533 95.1856 24.5785 95.1017 24.5785H94.4728ZM102.113 24.5785C102.03 24.5785 101.958 24.5533 101.9 24.503C101.849 24.4443 101.824 24.373 101.824 24.2892V15.9372C101.824 15.8533 101.849 15.7862 101.9 15.7359C101.958 15.6772 102.03 15.6479 102.113 15.6479H102.705C102.797 15.6479 102.868 15.6772 102.918 15.7359C102.969 15.7862 102.994 15.8533 102.994 15.9372V24.2892C102.994 24.373 102.969 24.4443 102.918 24.503C102.868 24.5533 102.797 24.5785 102.705 24.5785H102.113ZM107.549 24.7043C106.912 24.7043 106.38 24.5827 105.952 24.3395C105.524 24.0963 105.197 23.7609 104.971 23.3332C104.744 22.8972 104.619 22.4024 104.593 21.849C104.585 21.7064 104.581 21.5262 104.581 21.3081C104.581 21.0817 104.585 20.9014 104.593 20.7673C104.619 20.2054 104.744 19.7107 104.971 19.283C105.206 18.8554 105.537 18.5199 105.964 18.2768C106.392 18.0336 106.92 17.912 107.549 17.912C108.178 17.912 108.707 18.0336 109.134 18.2768C109.562 18.5199 109.889 18.8554 110.115 19.283C110.35 19.7107 110.48 20.2054 110.505 20.7673C110.514 20.9014 110.518 21.0817 110.518 21.3081C110.518 21.5262 110.514 21.7064 110.505 21.849C110.48 22.4024 110.354 22.8972 110.128 23.3332C109.902 23.7609 109.574 24.0963 109.147 24.3395C108.719 24.5827 108.187 24.7043 107.549 24.7043ZM107.549 23.7357C108.069 23.7357 108.484 23.5722 108.795 23.2452C109.105 22.9098 109.273 22.4234 109.298 21.7861C109.306 21.6603 109.31 21.501 109.31 21.3081C109.31 21.1153 109.306 20.9559 109.298 20.8302C109.273 20.1929 109.105 19.7107 108.795 19.3836C108.484 19.0482 108.069 18.8805 107.549 18.8805C107.029 18.8805 106.61 19.0482 106.292 19.3836C105.981 19.7107 105.818 20.1929 105.801 20.8302C105.793 20.9559 105.788 21.1153 105.788 21.3081C105.788 21.501 105.793 21.6603 105.801 21.7861C105.818 22.4234 105.981 22.9098 106.292 23.2452C106.61 23.5722 107.029 23.7357 107.549 23.7357ZM113.917 24.7043C113.497 24.7043 113.116 24.6204 112.772 24.4527C112.428 24.285 112.152 24.0586 111.942 23.7735C111.732 23.4884 111.627 23.1655 111.627 22.8049C111.627 22.2263 111.862 21.7651 112.332 21.4213C112.801 21.0775 113.414 20.8511 114.168 20.7421L116.042 20.478V20.1132C116.042 19.7107 115.925 19.3962 115.69 19.1698C115.464 18.9434 115.091 18.8302 114.571 18.8302C114.193 18.8302 113.887 18.9057 113.653 19.0566C113.426 19.2076 113.267 19.4004 113.175 19.6352C113.124 19.761 113.036 19.8239 112.91 19.8239H112.344C112.252 19.8239 112.181 19.7987 112.131 19.7484C112.089 19.6897 112.068 19.6226 112.068 19.5472C112.068 19.4214 112.114 19.2662 112.206 19.0818C112.307 18.8973 112.458 18.717 112.659 18.5409C112.86 18.3648 113.116 18.2181 113.426 18.1007C113.745 17.9749 114.131 17.912 114.583 17.912C115.087 17.912 115.51 17.9791 115.854 18.1132C116.198 18.239 116.466 18.4109 116.659 18.6289C116.86 18.847 117.003 19.0943 117.086 19.3711C117.179 19.6478 117.225 19.9287 117.225 20.2138V24.2892C117.225 24.373 117.195 24.4443 117.137 24.503C117.086 24.5533 117.019 24.5785 116.936 24.5785H116.357C116.265 24.5785 116.193 24.5533 116.143 24.503C116.093 24.4443 116.068 24.373 116.068 24.2892V23.7483C115.959 23.8993 115.812 24.0502 115.627 24.2011C115.443 24.3437 115.212 24.4653 114.936 24.5659C114.659 24.6582 114.319 24.7043 113.917 24.7043ZM114.181 23.7609C114.525 23.7609 114.839 23.6896 115.124 23.5471C115.409 23.3961 115.632 23.1655 115.791 22.8553C115.959 22.545 116.042 22.1551 116.042 21.6855V21.3333L114.583 21.5471C113.988 21.631 113.539 21.7735 113.238 21.9748C112.936 22.1676 112.785 22.415 112.785 22.7169C112.785 22.9517 112.852 23.1488 112.986 23.3081C113.128 23.459 113.305 23.5722 113.514 23.6477C113.732 23.7232 113.954 23.7609 114.181 23.7609ZM121.423 24.7043C120.962 24.7043 120.563 24.6246 120.228 24.4653C119.893 24.2976 119.616 24.0754 119.398 23.7986C119.188 23.5135 119.029 23.1907 118.92 22.8301C118.819 22.4695 118.761 22.088 118.744 21.6855C118.735 21.5513 118.731 21.4255 118.731 21.3081C118.731 21.1907 118.735 21.0649 118.744 20.9308C118.761 20.5367 118.819 20.1593 118.92 19.7987C119.029 19.4382 119.188 19.1153 119.398 18.8302C119.616 18.5451 119.893 18.3229 120.228 18.1635C120.563 17.9958 120.962 17.912 121.423 17.912C121.918 17.912 122.329 18 122.656 18.1761C122.983 18.3522 123.251 18.5702 123.461 18.8302V15.9372C123.461 15.8533 123.486 15.7862 123.536 15.7359C123.595 15.6772 123.666 15.6479 123.75 15.6479H124.354C124.438 15.6479 124.505 15.6772 124.555 15.7359C124.614 15.7862 124.643 15.8533 124.643 15.9372V24.2892C124.643 24.373 124.614 24.4443 124.555 24.503C124.505 24.5533 124.438 24.5785 124.354 24.5785H123.788C123.695 24.5785 123.624 24.5533 123.574 24.503C123.524 24.4443 123.498 24.373 123.498 24.2892V23.7609C123.289 24.0292 123.016 24.2556 122.681 24.4401C122.345 24.6162 121.926 24.7043 121.423 24.7043ZM121.687 23.6854C122.106 23.6854 122.442 23.589 122.693 23.3961C122.945 23.2033 123.134 22.9601 123.259 22.6666C123.385 22.3647 123.452 22.0586 123.461 21.7484C123.469 21.6142 123.473 21.4549 123.473 21.2704C123.473 21.0775 123.469 20.914 123.461 20.7798C123.452 20.4863 123.381 20.197 123.247 19.9119C123.121 19.6268 122.928 19.392 122.668 19.2076C122.417 19.0231 122.09 18.9308 121.687 18.9308C121.259 18.9308 120.92 19.0273 120.668 19.2201C120.417 19.4046 120.236 19.652 120.127 19.9622C120.018 20.2641 119.955 20.5912 119.939 20.9434C119.93 21.1865 119.93 21.4297 119.939 21.6729C119.955 22.0251 120.018 22.3563 120.127 22.6666C120.236 22.9685 120.417 23.2158 120.668 23.4087C120.92 23.5932 121.259 23.6854 121.687 23.6854ZM131.542 24.5785C131.416 24.5785 131.315 24.5491 131.24 24.4904C131.173 24.4317 131.118 24.3563 131.077 24.264L128.75 18.4277C128.733 18.3858 128.724 18.3438 128.724 18.3019C128.724 18.2264 128.75 18.1636 128.8 18.1132C128.85 18.0629 128.913 18.0378 128.989 18.0378H129.592C129.685 18.0378 129.756 18.0629 129.806 18.1132C129.856 18.1636 129.886 18.2097 129.894 18.2516L131.819 23.2075L133.731 18.2516C133.747 18.2097 133.777 18.1636 133.819 18.1132C133.869 18.0629 133.94 18.0378 134.032 18.0378H134.649C134.716 18.0378 134.775 18.0629 134.825 18.1132C134.884 18.1636 134.913 18.2264 134.913 18.3019C134.913 18.3438 134.905 18.3858 134.888 18.4277L132.548 24.264C132.515 24.3563 132.46 24.4317 132.385 24.4904C132.318 24.5491 132.217 24.5785 132.083 24.5785H131.542ZM136.519 24.5785C136.435 24.5785 136.364 24.5533 136.305 24.503C136.255 24.4443 136.23 24.373 136.23 24.2892V18.3271C136.23 18.2432 136.255 18.1761 136.305 18.1258C136.364 18.0671 136.435 18.0378 136.519 18.0378H137.123C137.207 18.0378 137.274 18.0671 137.324 18.1258C137.375 18.1761 137.4 18.2432 137.4 18.3271V24.2892C137.4 24.373 137.375 24.4443 137.324 24.503C137.274 24.5533 137.207 24.5785 137.123 24.5785H136.519ZM136.419 16.8177C136.335 16.8177 136.264 16.7925 136.205 16.7422C136.155 16.6835 136.129 16.6122 136.129 16.5284V15.8491C136.129 15.7653 136.155 15.6982 136.205 15.6479C136.264 15.5892 136.335 15.5598 136.419 15.5598H137.211C137.295 15.5598 137.362 15.5892 137.412 15.6479C137.471 15.6982 137.5 15.7653 137.5 15.8491V16.5284C137.5 16.6122 137.471 16.6835 137.412 16.7422C137.362 16.7925 137.295 16.8177 137.211 16.8177H136.419ZM141.1 24.7043C140.681 24.7043 140.299 24.6204 139.956 24.4527C139.612 24.285 139.335 24.0586 139.125 23.7735C138.916 23.4884 138.811 23.1655 138.811 22.8049C138.811 22.2263 139.046 21.7651 139.515 21.4213C139.985 21.0775 140.597 20.8511 141.352 20.7421L143.226 20.478V20.1132C143.226 19.7107 143.108 19.3962 142.874 19.1698C142.647 18.9434 142.274 18.8302 141.754 18.8302C141.377 18.8302 141.071 18.9057 140.836 19.0566C140.61 19.2076 140.45 19.4004 140.358 19.6352C140.308 19.761 140.22 19.8239 140.094 19.8239H139.528C139.436 19.8239 139.364 19.7987 139.314 19.7484C139.272 19.6897 139.251 19.6226 139.251 19.5472C139.251 19.4214 139.297 19.2662 139.389 19.0818C139.49 18.8973 139.641 18.717 139.842 18.5409C140.044 18.3648 140.299 18.2181 140.61 18.1007C140.928 17.9749 141.314 17.912 141.767 17.912C142.27 17.912 142.693 17.9791 143.037 18.1132C143.381 18.239 143.649 18.4109 143.842 18.6289C144.043 18.847 144.186 19.0943 144.27 19.3711C144.362 19.6478 144.408 19.9287 144.408 20.2138V24.2892C144.408 24.373 144.379 24.4443 144.32 24.503C144.27 24.5533 144.203 24.5785 144.119 24.5785H143.54C143.448 24.5785 143.377 24.5533 143.327 24.503C143.276 24.4443 143.251 24.373 143.251 24.2892V23.7483C143.142 23.8993 142.995 24.0502 142.811 24.2011C142.626 24.3437 142.396 24.4653 142.119 24.5659C141.842 24.6582 141.503 24.7043 141.1 24.7043ZM141.364 23.7609C141.708 23.7609 142.023 23.6896 142.308 23.5471C142.593 23.3961 142.815 23.1655 142.974 22.8553C143.142 22.545 143.226 22.1551 143.226 21.6855V21.3333L141.767 21.5471C141.171 21.631 140.723 21.7735 140.421 21.9748C140.119 22.1676 139.968 22.415 139.968 22.7169C139.968 22.9517 140.035 23.1488 140.169 23.3081C140.312 23.459 140.488 23.5722 140.698 23.6477C140.916 23.7232 141.138 23.7609 141.364 23.7609Z" fill="white"/>
<path d="M67.9482 45.3495C67.8588 45.3495 67.7749 45.3159 67.6966 45.2489C67.6296 45.1706 67.596 45.0867 67.596 44.9973C67.596 44.9414 67.6016 44.8911 67.6128 44.8464L71.554 34.0793C71.5875 33.9563 71.6546 33.8501 71.7552 33.7607C71.867 33.66 72.018 33.6097 72.2081 33.6097H74.6902C74.8803 33.6097 75.0256 33.66 75.1262 33.7607C75.238 33.8501 75.3107 33.9563 75.3443 34.0793L79.2687 44.8464C79.291 44.8911 79.3022 44.9414 79.3022 44.9973C79.3022 45.0867 79.2631 45.1706 79.1848 45.2489C79.1177 45.3159 79.0339 45.3495 78.9333 45.3495H76.8704C76.7027 45.3495 76.5741 45.3104 76.4847 45.2321C76.4064 45.1426 76.3561 45.0644 76.3337 44.9973L75.6797 43.2866H71.2018L70.5645 44.9973C70.5421 45.0644 70.4918 45.1426 70.4136 45.2321C70.3353 45.3104 70.2011 45.3495 70.011 45.3495H67.9482ZM71.8894 40.8716H75.0088L73.4323 36.444L71.8894 40.8716ZM80.8589 48.536C80.7359 48.536 80.6353 48.4969 80.557 48.4186C80.4788 48.3403 80.4396 48.2397 80.4396 48.1167V37.0478C80.4396 36.9248 80.4788 36.8242 80.557 36.7459C80.6353 36.6677 80.7359 36.6285 80.8589 36.6285H82.7541C82.8659 36.6285 82.9609 36.6677 83.0392 36.7459C83.1286 36.8242 83.1733 36.9248 83.1733 37.0478V37.6683C83.4305 37.3217 83.7715 37.0366 84.1964 36.813C84.6212 36.5782 85.1467 36.4608 85.7729 36.4608C86.3319 36.4608 86.8238 36.5503 87.2487 36.7291C87.6736 36.8969 88.037 37.1484 88.3388 37.4838C88.6407 37.8193 88.8755 38.2274 89.0432 38.7081C89.2221 39.1889 89.3227 39.7424 89.3451 40.3685C89.3563 40.5921 89.3619 40.7989 89.3619 40.989C89.3619 41.1791 89.3563 41.3859 89.3451 41.6095C89.3227 42.2133 89.2277 42.7556 89.06 43.2363C88.8923 43.7171 88.6575 44.1252 88.3556 44.4606C88.0537 44.796 87.6848 45.0588 87.2487 45.2489C86.8238 45.4278 86.3319 45.5172 85.7729 45.5172C85.225 45.5172 84.7442 45.4222 84.3305 45.2321C83.928 45.0308 83.5926 44.7513 83.3243 44.3935V48.1167C83.3243 48.2397 83.2851 48.3403 83.2069 48.4186C83.1286 48.4969 83.028 48.536 82.905 48.536H80.8589ZM84.8672 43.2699C85.2474 43.2699 85.5437 43.1916 85.7561 43.0351C85.9685 42.8785 86.1195 42.6661 86.2089 42.3978C86.3095 42.1294 86.371 41.8331 86.3934 41.5089C86.4157 41.1623 86.4157 40.8157 86.3934 40.4691C86.371 40.1449 86.3095 39.8486 86.2089 39.5802C86.1195 39.3119 85.9685 39.0995 85.7561 38.9429C85.5437 38.7864 85.2474 38.7081 84.8672 38.7081C84.4983 38.7081 84.202 38.792 83.9783 38.9597C83.7547 39.1162 83.5926 39.3231 83.492 39.5802C83.3914 39.8374 83.3355 40.1169 83.3243 40.4188C83.3131 40.6312 83.3075 40.8381 83.3075 41.0393C83.3075 41.2406 83.3131 41.453 83.3243 41.6766C83.3355 41.9561 83.397 42.2189 83.5088 42.4649C83.6206 42.6997 83.7883 42.8953 84.0119 43.0518C84.2355 43.1972 84.5206 43.2699 84.8672 43.2699ZM91.4391 48.536C91.3161 48.536 91.2155 48.4969 91.1372 48.4186C91.059 48.3403 91.0198 48.2397 91.0198 48.1167V37.0478C91.0198 36.9248 91.059 36.8242 91.1372 36.7459C91.2155 36.6677 91.3161 36.6285 91.4391 36.6285H93.3343C93.4461 36.6285 93.5411 36.6677 93.6194 36.7459C93.7088 36.8242 93.7535 36.9248 93.7535 37.0478V37.6683C94.0107 37.3217 94.3517 37.0366 94.7766 36.813C95.2014 36.5782 95.7269 36.4608 96.3531 36.4608C96.9121 36.4608 97.404 36.5503 97.8289 36.7291C98.2538 36.8969 98.6172 37.1484 98.919 37.4838C99.2209 37.8193 99.4557 38.2274 99.6234 38.7081C99.8023 39.1889 99.9029 39.7424 99.9253 40.3685C99.9365 40.5921 99.9421 40.7989 99.9421 40.989C99.9421 41.1791 99.9365 41.3859 99.9253 41.6095C99.9029 42.2133 99.8079 42.7556 99.6402 43.2363C99.4725 43.7171 99.2377 44.1252 98.9358 44.4606C98.6339 44.796 98.265 45.0588 97.8289 45.2489C97.404 45.4278 96.9121 45.5172 96.3531 45.5172C95.8052 45.5172 95.3244 45.4222 94.9107 45.2321C94.5082 45.0308 94.1728 44.7513 93.9045 44.3935V48.1167C93.9045 48.2397 93.8653 48.3403 93.7871 48.4186C93.7088 48.4969 93.6082 48.536 93.4852 48.536H91.4391ZM95.4474 43.2699C95.8276 43.2699 96.1238 43.1916 96.3363 43.0351C96.5487 42.8785 96.6997 42.6661 96.7891 42.3978C96.8897 42.1294 96.9512 41.8331 96.9736 41.5089C96.9959 41.1623 96.9959 40.8157 96.9736 40.4691C96.9512 40.1449 96.8897 39.8486 96.7891 39.5802C96.6997 39.3119 96.5487 39.0995 96.3363 38.9429C96.1238 38.7864 95.8276 38.7081 95.4474 38.7081C95.0785 38.7081 94.7822 38.792 94.5585 38.9597C94.3349 39.1162 94.1728 39.3231 94.0722 39.5802C93.9716 39.8374 93.9157 40.1169 93.9045 40.4188C93.8933 40.6312 93.8877 40.8381 93.8877 41.0393C93.8877 41.2406 93.8933 41.453 93.9045 41.6766C93.9157 41.9561 93.9772 42.2189 94.089 42.4649C94.2008 42.6997 94.3685 42.8953 94.5921 43.0518C94.8157 43.1972 95.1008 43.2699 95.4474 43.2699ZM102.019 45.3495C101.896 45.3495 101.796 45.3104 101.717 45.2321C101.639 45.1538 101.6 45.0532 101.6 44.9302V33.8613C101.6 33.7383 101.639 33.6377 101.717 33.5594C101.796 33.4811 101.896 33.442 102.019 33.442H103.998C104.121 33.442 104.222 33.4811 104.3 33.5594C104.378 33.6377 104.418 33.7383 104.418 33.8613V44.9302C104.418 45.0532 104.378 45.1538 104.3 45.2321C104.222 45.3104 104.121 45.3495 103.998 45.3495H102.019ZM110.424 45.5172C109.105 45.5172 108.054 45.1594 107.271 44.4438C106.488 43.7283 106.08 42.6661 106.047 41.2573C106.047 41.1791 106.047 41.0784 106.047 40.9555C106.047 40.8325 106.047 40.7374 106.047 40.6704C106.08 39.7871 106.276 39.0324 106.634 38.4063C107.003 37.769 107.506 37.2882 108.143 36.9639C108.791 36.6285 109.546 36.4608 110.407 36.4608C111.391 36.4608 112.202 36.6565 112.839 37.0478C113.487 37.4391 113.974 37.9702 114.298 38.6411C114.622 39.3119 114.784 40.0778 114.784 40.9387V41.3412C114.784 41.4642 114.74 41.5648 114.65 41.6431C114.572 41.7213 114.477 41.7605 114.365 41.7605H108.998C108.998 41.7717 108.998 41.7884 108.998 41.8108C108.998 41.8331 108.998 41.8555 108.998 41.8779C109.01 42.2021 109.065 42.4984 109.166 42.7667C109.267 43.0351 109.423 43.2475 109.636 43.404C109.848 43.5606 110.105 43.6388 110.407 43.6388C110.631 43.6388 110.815 43.6053 110.961 43.5382C111.117 43.4599 111.246 43.3761 111.346 43.2866C111.447 43.186 111.525 43.1022 111.581 43.0351C111.682 42.9233 111.76 42.8562 111.816 42.8338C111.883 42.8003 111.984 42.7835 112.118 42.7835H114.197C114.309 42.7835 114.399 42.8171 114.466 42.8841C114.544 42.94 114.578 43.0239 114.566 43.1357C114.555 43.3258 114.46 43.555 114.281 43.8233C114.102 44.0917 113.84 44.36 113.493 44.6283C113.158 44.8855 112.733 45.0979 112.218 45.2656C111.704 45.4333 111.106 45.5172 110.424 45.5172ZM108.998 40.1001H111.833V40.0666C111.833 39.7088 111.777 39.3958 111.665 39.1274C111.564 38.8591 111.402 38.6522 111.179 38.5069C110.966 38.3615 110.709 38.2889 110.407 38.2889C110.105 38.2889 109.848 38.3615 109.636 38.5069C109.434 38.6522 109.278 38.8591 109.166 39.1274C109.054 39.3958 108.998 39.7088 108.998 40.0666V40.1001ZM124.489 45.5172C123.371 45.5172 122.443 45.3607 121.705 45.0476C120.967 44.7234 120.408 44.3041 120.028 43.7898C119.648 43.2755 119.446 42.7276 119.424 42.1462C119.424 42.0568 119.457 41.9785 119.525 41.9114C119.603 41.8331 119.692 41.794 119.793 41.794H121.906C122.063 41.794 122.18 41.822 122.258 41.8779C122.348 41.9338 122.426 42.0065 122.493 42.0959C122.582 42.2636 122.705 42.4257 122.862 42.5823C123.03 42.7388 123.242 42.8674 123.499 42.968C123.768 43.0574 124.097 43.1022 124.489 43.1022C125.137 43.1022 125.624 43.0015 125.948 42.8003C126.283 42.599 126.451 42.3251 126.451 41.9785C126.451 41.7325 126.362 41.5313 126.183 41.3747C126.004 41.207 125.713 41.0617 125.311 40.9387C124.919 40.8045 124.394 40.6704 123.734 40.5362C122.884 40.3573 122.158 40.1281 121.554 39.8486C120.961 39.5579 120.508 39.1833 120.195 38.7249C119.882 38.2553 119.726 37.6739 119.726 36.9807C119.726 36.2987 119.916 35.6893 120.296 35.1527C120.687 34.616 121.23 34.1967 121.923 33.8948C122.616 33.593 123.438 33.442 124.388 33.442C125.16 33.442 125.836 33.5426 126.417 33.7439C127.01 33.9451 127.508 34.2135 127.91 34.5489C128.313 34.8843 128.614 35.2421 128.816 35.6223C129.028 35.9912 129.14 36.3546 129.151 36.7124C129.151 36.8018 129.118 36.8857 129.051 36.9639C128.983 37.031 128.9 37.0646 128.799 37.0646H126.585C126.462 37.0646 126.356 37.0422 126.267 36.9975C126.177 36.9528 126.099 36.8801 126.032 36.7795C125.965 36.5335 125.786 36.3211 125.495 36.1422C125.216 35.9521 124.847 35.857 124.388 35.857C123.896 35.857 123.51 35.9465 123.231 36.1254C122.963 36.2931 122.828 36.5558 122.828 36.9136C122.828 37.1372 122.901 37.3329 123.046 37.5006C123.203 37.6683 123.455 37.8137 123.801 37.9367C124.159 38.0597 124.645 38.1882 125.26 38.3224C126.278 38.5125 127.099 38.7529 127.726 39.0436C128.352 39.3231 128.81 39.692 129.101 40.1504C129.392 40.5977 129.537 41.1623 129.537 41.8443C129.537 42.6046 129.319 43.2643 128.883 43.8233C128.458 44.3712 127.865 44.7905 127.105 45.0811C126.345 45.3718 125.473 45.5172 124.489 45.5172ZM135.492 45.3495C134.777 45.3495 134.156 45.2377 133.631 45.0141C133.117 44.7793 132.72 44.4215 132.44 43.9407C132.161 43.4488 132.021 42.8171 132.021 42.0456V38.8255H130.713C130.59 38.8255 130.483 38.7864 130.394 38.7081C130.316 38.6299 130.277 38.5292 130.277 38.4063V37.0478C130.277 36.9248 130.316 36.8242 130.394 36.7459C130.483 36.6677 130.59 36.6285 130.713 36.6285H132.021V33.8613C132.021 33.7383 132.06 33.6377 132.138 33.5594C132.228 33.4811 132.328 33.442 132.44 33.442H134.386C134.509 33.442 134.609 33.4811 134.687 33.5594C134.766 33.6377 134.805 33.7383 134.805 33.8613V36.6285H136.901C137.024 36.6285 137.125 36.6677 137.203 36.7459C137.281 36.8242 137.321 36.9248 137.321 37.0478V38.4063C137.321 38.5292 137.281 38.6299 137.203 38.7081C137.125 38.7864 137.024 38.8255 136.901 38.8255H134.805V41.8108C134.805 42.1909 134.878 42.4928 135.023 42.7164C135.168 42.94 135.414 43.0518 135.761 43.0518H137.052C137.175 43.0518 137.276 43.091 137.354 43.1692C137.432 43.2475 137.471 43.3481 137.471 43.4711V44.9302C137.471 45.0532 137.432 45.1538 137.354 45.2321C137.276 45.3104 137.175 45.3495 137.052 45.3495H135.492ZM142.986 45.5172C142.047 45.5172 141.253 45.3663 140.604 45.0644C139.967 44.7625 139.475 44.332 139.128 43.773C138.793 43.2028 138.603 42.5264 138.558 41.7437C138.547 41.5201 138.541 41.2685 138.541 40.989C138.541 40.6983 138.547 40.4467 138.558 40.2343C138.603 39.4405 138.804 38.764 139.162 38.205C139.52 37.646 140.017 37.2155 140.655 36.9136C141.303 36.6117 142.08 36.4608 142.986 36.4608C143.903 36.4608 144.68 36.6117 145.317 36.9136C145.965 37.2155 146.469 37.646 146.826 38.205C147.184 38.764 147.385 39.4405 147.43 40.2343C147.441 40.4467 147.447 40.6983 147.447 40.989C147.447 41.2685 147.441 41.5201 147.43 41.7437C147.385 42.5264 147.19 43.2028 146.843 43.773C146.508 44.332 146.016 44.7625 145.367 45.0644C144.73 45.3663 143.936 45.5172 142.986 45.5172ZM142.986 43.4711C143.489 43.4711 143.852 43.3202 144.076 43.0183C144.311 42.7164 144.445 42.2636 144.478 41.6598C144.49 41.4921 144.495 41.2685 144.495 40.989C144.495 40.7095 144.49 40.4859 144.478 40.3182C144.445 39.7256 144.311 39.2784 144.076 38.9765C143.852 38.6634 143.489 38.5069 142.986 38.5069C142.494 38.5069 142.13 38.6634 141.896 38.9765C141.661 39.2784 141.532 39.7256 141.51 40.3182C141.499 40.4859 141.493 40.7095 141.493 40.989C141.493 41.2685 141.499 41.4921 141.51 41.6598C141.532 42.2636 141.661 42.7164 141.896 43.0183C142.13 43.3202 142.494 43.4711 142.986 43.4711ZM149.516 45.3495C149.393 45.3495 149.292 45.3104 149.214 45.2321C149.135 45.1538 149.096 45.0532 149.096 44.9302V37.0478C149.096 36.936 149.135 36.841 149.214 36.7627C149.292 36.6732 149.393 36.6285 149.516 36.6285H151.444C151.567 36.6285 151.668 36.6732 151.746 36.7627C151.824 36.841 151.864 36.936 151.864 37.0478V37.7186C152.165 37.372 152.523 37.1037 152.937 36.9136C153.362 36.7236 153.837 36.6285 154.362 36.6285H155.1C155.212 36.6285 155.307 36.6677 155.385 36.7459C155.475 36.8242 155.52 36.9248 155.52 37.0478V38.7752C155.52 38.887 155.475 38.9877 155.385 39.0771C155.307 39.1554 155.212 39.1945 155.1 39.1945H153.474C153.015 39.1945 152.657 39.3231 152.4 39.5802C152.154 39.8262 152.031 40.1784 152.031 40.6368V44.9302C152.031 45.0532 151.987 45.1538 151.897 45.2321C151.819 45.3104 151.718 45.3495 151.595 45.3495H149.516ZM160.672 45.5172C159.352 45.5172 158.301 45.1594 157.519 44.4438C156.736 43.7283 156.328 42.6661 156.294 41.2573C156.294 41.1791 156.294 41.0784 156.294 40.9555C156.294 40.8325 156.294 40.7374 156.294 40.6704C156.328 39.7871 156.524 39.0324 156.881 38.4063C157.25 37.769 157.753 37.2882 158.391 36.9639C159.039 36.6285 159.794 36.4608 160.655 36.4608C161.639 36.4608 162.449 36.6565 163.087 37.0478C163.735 37.4391 164.222 37.9702 164.546 38.6411C164.87 39.3119 165.032 40.0778 165.032 40.9387V41.3412C165.032 41.4642 164.987 41.5648 164.898 41.6431C164.82 41.7213 164.725 41.7605 164.613 41.7605H159.246C159.246 41.7717 159.246 41.7884 159.246 41.8108C159.246 41.8331 159.246 41.8555 159.246 41.8779C159.257 42.2021 159.313 42.4984 159.414 42.7667C159.514 43.0351 159.671 43.2475 159.883 43.404C160.096 43.5606 160.353 43.6388 160.655 43.6388C160.878 43.6388 161.063 43.6053 161.208 43.5382C161.365 43.4599 161.493 43.3761 161.594 43.2866C161.695 43.186 161.773 43.1022 161.829 43.0351C161.929 42.9233 162.008 42.8562 162.064 42.8338C162.131 42.8003 162.231 42.7835 162.366 42.7835H164.445C164.557 42.7835 164.646 42.8171 164.713 42.8841C164.792 42.94 164.825 43.0239 164.814 43.1357C164.803 43.3258 164.708 43.555 164.529 43.8233C164.35 44.0917 164.087 44.36 163.741 44.6283C163.405 44.8855 162.98 45.0979 162.466 45.2656C161.952 45.4333 161.354 45.5172 160.672 45.5172ZM159.246 40.1001H162.08V40.0666C162.08 39.7088 162.024 39.3958 161.913 39.1274C161.812 38.8591 161.65 38.6522 161.426 38.5069C161.214 38.3615 160.957 38.2889 160.655 38.2889C160.353 38.2889 160.096 38.3615 159.883 38.5069C159.682 38.6522 159.526 38.8591 159.414 39.1274C159.302 39.3958 159.246 39.7088 159.246 40.0666V40.1001Z" fill="white"/>
<path d="M36.7349 42.414C36.1496 42.0292 35.6309 41.5538 35.1987 41.0059C34.7233 40.4404 34.2828 39.8471 33.8797 39.2293C32.9336 37.8595 32.1917 36.3624 31.6766 34.784C31.0579 32.9505 30.7583 31.1931 30.7583 29.4743C30.7583 27.5546 31.1785 25.8788 32.0004 24.4707C32.6096 23.3701 33.5053 22.4504 34.5949 21.8067C35.6508 21.1585 36.864 20.8038 38.1068 20.7799C38.5418 20.7799 39.0103 20.8422 39.5075 20.9614C39.8646 21.0613 40.2996 21.219 40.8312 21.4152C41.5074 21.6728 41.8794 21.8305 42.0055 21.869C42.4016 22.012 42.7346 22.0743 42.9962 22.0743C43.1947 22.0743 43.4748 22.012 43.793 21.9167C43.972 21.8543 44.3097 21.7443 44.793 21.5399C45.2716 21.3675 45.6482 21.2199 45.9478 21.1099C46.407 20.9761 46.8513 20.8523 47.2474 20.79C47.717 20.7168 48.1935 20.6974 48.6676 20.7322C49.4891 20.7853 50.2982 20.9573 51.0691 21.2429C52.3297 21.7443 53.3492 22.5272 54.108 23.6401C53.7872 23.8355 53.4862 24.0608 53.2091 24.313C52.6058 24.8416 52.0919 25.4621 51.6869 26.1511C51.1575 27.0926 50.8831 28.1533 50.8901 29.2304C50.9096 30.5533 51.2528 31.7184 51.929 32.7259C52.4262 33.4726 53.0723 34.1112 53.8278 34.6025C54.2146 34.8601 54.5476 35.037 54.8667 35.1562C54.7174 35.6146 54.5578 36.0583 54.3695 36.4983C53.9425 37.4851 53.4249 38.4311 52.8232 39.3246C52.2871 40.0938 51.8669 40.6667 51.5478 41.0481C51.0506 41.6302 50.5719 42.0748 50.0886 42.3847C49.5571 42.7331 48.9291 42.9192 48.291 42.9192C47.8587 42.9356 47.4266 42.8839 47.0109 42.7661C46.6537 42.6469 46.3003 42.5176 45.9525 42.37C45.5908 42.2059 45.2179 42.0671 44.8366 41.9547C43.8938 41.7154 42.9054 41.7139 41.9619 41.9502C41.5751 42.0602 41.2031 42.1885 40.8358 42.3462C40.3191 42.5607 39.9759 42.7046 39.7774 42.7661C39.3813 42.8807 38.9704 42.9522 38.5548 42.976C37.912 42.976 37.3128 42.7945 36.7191 42.4269L36.7349 42.414ZM45.2132 19.8485C44.3727 20.2638 43.5704 20.4407 42.7736 20.383C42.6483 19.59 42.7736 18.7787 43.1066 17.8903C43.3901 17.1378 43.809 16.4421 44.3431 15.8368C44.9071 15.1997 45.5914 14.6775 46.3578 14.2995C47.1741 13.8842 47.9524 13.6596 48.6963 13.6266C48.7928 14.4572 48.6963 15.274 48.3874 16.1568C48.1016 16.9372 47.6834 17.6638 47.1509 18.3056C46.6074 18.9436 45.9404 19.4679 45.189 19.8476L45.2132 19.8485Z" fill="white"/>
</svg>
