<svg width="202" height="64" viewBox="0 0 202 64" fill="none" xmlns="http://www.w3.org/2000/svg">
<rect y="0.591553" width="202" height="62.5915" rx="11.3803" fill="#33303E"/>
<path d="M68.8287 24.9377C68.7364 24.9377 68.6652 24.9126 68.6149 24.8623C68.5645 24.8036 68.5394 24.7323 68.5394 24.6484V16.4348C68.5394 16.3426 68.5645 16.2713 68.6149 16.221C68.6652 16.1623 68.7364 16.1329 68.8287 16.1329H71.684C72.5477 16.1329 73.2437 16.2629 73.772 16.5229C74.3003 16.7828 74.686 17.1685 74.9292 17.6801C75.1723 18.1832 75.2981 18.8037 75.3065 19.5416C75.3149 19.919 75.3191 20.2502 75.3191 20.5353C75.3191 20.8204 75.3149 21.1475 75.3065 21.5164C75.2897 22.2879 75.1598 22.9294 74.9166 23.4409C74.6818 23.9441 74.3044 24.3214 73.7845 24.573C73.273 24.8162 72.5938 24.9377 71.7469 24.9377H68.8287ZM69.7721 23.8686H71.684C72.2626 23.8686 72.7238 23.7889 73.0676 23.6296C73.4114 23.4703 73.6588 23.2145 73.8097 22.8623C73.969 22.5101 74.0529 22.0447 74.0613 21.4661C74.078 21.2146 74.0864 20.9965 74.0864 20.8121C74.0864 20.6192 74.0864 20.4305 74.0864 20.246C74.0864 20.0532 74.078 19.8351 74.0613 19.592C74.0445 18.7786 73.8516 18.179 73.4827 17.7933C73.1137 17.3991 72.4932 17.2021 71.6211 17.2021H69.7721V23.8686ZM79.7272 25.0635C79.0899 25.0635 78.5574 24.9419 78.1298 24.6988C77.7021 24.4556 77.3751 24.1202 77.1486 23.6925C76.9222 23.2564 76.7965 22.7617 76.7713 22.2082C76.7629 22.0657 76.7587 21.8854 76.7587 21.6674C76.7587 21.441 76.7629 21.2607 76.7713 21.1265C76.7965 20.5647 76.9222 20.0699 77.1486 19.6423C77.3834 19.2146 77.7147 18.8792 78.1423 18.636C78.57 18.3928 79.0983 18.2712 79.7272 18.2712C80.3561 18.2712 80.8844 18.3928 81.3121 18.636C81.7397 18.8792 82.0668 19.2146 82.2932 19.6423C82.528 20.0699 82.658 20.5647 82.6831 21.1265C82.6915 21.2607 82.6957 21.441 82.6957 21.6674C82.6957 21.8854 82.6915 22.0657 82.6831 22.2082C82.658 22.7617 82.5322 23.2564 82.3058 23.6925C82.0793 24.1202 81.7523 24.4556 81.3247 24.6988C80.897 24.9419 80.3645 25.0635 79.7272 25.0635ZM79.7272 24.095C80.2471 24.095 80.6622 23.9315 80.9725 23.6044C81.2827 23.269 81.4504 22.7827 81.4756 22.1454C81.484 22.0196 81.4882 21.8602 81.4882 21.6674C81.4882 21.4745 81.484 21.3152 81.4756 21.1894C81.4504 20.5521 81.2827 20.0699 80.9725 19.7429C80.6622 19.4075 80.2471 19.2398 79.7272 19.2398C79.2073 19.2398 78.788 19.4075 78.4694 19.7429C78.1591 20.0699 77.9956 20.5521 77.9788 21.1894C77.9704 21.3152 77.9662 21.4745 77.9662 21.6674C77.9662 21.8602 77.9704 22.0196 77.9788 22.1454C77.9956 22.7827 78.1591 23.269 78.4694 23.6044C78.788 23.9315 79.2073 24.095 79.7272 24.095ZM85.8346 24.9377C85.7256 24.9377 85.6417 24.9126 85.583 24.8623C85.5243 24.8036 85.474 24.7239 85.4321 24.6233L83.6459 18.7869C83.6292 18.745 83.6208 18.7031 83.6208 18.6612C83.6208 18.5857 83.6459 18.5228 83.6963 18.4725C83.755 18.4222 83.8178 18.397 83.8849 18.397H84.4384C84.5306 18.397 84.6019 18.4222 84.6522 18.4725C84.7025 18.5228 84.7361 18.5689 84.7528 18.6109L86.149 23.3529L87.6458 18.6612C87.6626 18.6025 87.6962 18.5438 87.7465 18.4851C87.8052 18.4264 87.889 18.397 87.998 18.397H88.4257C88.5347 18.397 88.6186 18.4264 88.6773 18.4851C88.736 18.5438 88.7695 18.6025 88.7779 18.6612L90.2747 23.3529L91.6709 18.6109C91.6793 18.5689 91.7086 18.5228 91.759 18.4725C91.8093 18.4222 91.8805 18.397 91.9728 18.397H92.5262C92.6017 18.397 92.6646 18.4222 92.7149 18.4725C92.7652 18.5228 92.7904 18.5857 92.7904 18.6612C92.7904 18.7031 92.782 18.745 92.7652 18.7869L90.9791 24.6233C90.9539 24.7239 90.9078 24.8036 90.8407 24.8623C90.782 24.9126 90.694 24.9377 90.5766 24.9377H90.086C89.977 24.9377 89.8848 24.9126 89.8093 24.8623C89.7422 24.8036 89.6961 24.7239 89.671 24.6233L88.2119 20.1202L86.7528 24.6233C86.7192 24.7239 86.6689 24.8036 86.6018 24.8623C86.5348 24.9126 86.4425 24.9377 86.3251 24.9377H85.8346ZM94.4728 24.9377C94.389 24.9377 94.3177 24.9126 94.259 24.8623C94.2087 24.8036 94.1835 24.7323 94.1835 24.6484V18.6863C94.1835 18.6025 94.2087 18.5354 94.259 18.4851C94.3177 18.4264 94.389 18.397 94.4728 18.397H95.064C95.1479 18.397 95.2149 18.4264 95.2653 18.4851C95.324 18.5354 95.3533 18.6025 95.3533 18.6863V19.2398C95.5713 18.9547 95.8439 18.7241 96.1709 18.548C96.5063 18.3635 96.934 18.2712 97.4539 18.2712C97.9989 18.2712 98.4601 18.3928 98.8375 18.636C99.2232 18.8708 99.5125 19.202 99.7054 19.6297C99.8983 20.049 99.9947 20.5395 99.9947 21.1014V24.6484C99.9947 24.7323 99.9695 24.8036 99.9192 24.8623C99.8689 24.9126 99.8018 24.9377 99.718 24.9377H99.0891C99.0052 24.9377 98.9339 24.9126 98.8752 24.8623C98.8249 24.8036 98.7998 24.7323 98.7998 24.6484V21.1642C98.7998 20.5773 98.6572 20.1202 98.3721 19.7932C98.087 19.4578 97.6677 19.2901 97.1143 19.2901C96.5944 19.2901 96.1751 19.4578 95.8564 19.7932C95.5462 20.1202 95.391 20.5773 95.391 21.1642V24.6484C95.391 24.7323 95.3617 24.8036 95.303 24.8623C95.2527 24.9126 95.1856 24.9377 95.1017 24.9377H94.4728ZM102.113 24.9377C102.03 24.9377 101.958 24.9126 101.9 24.8623C101.849 24.8036 101.824 24.7323 101.824 24.6484V16.2964C101.824 16.2126 101.849 16.1455 101.9 16.0952C101.958 16.0365 102.03 16.0071 102.113 16.0071H102.705C102.797 16.0071 102.868 16.0365 102.918 16.0952C102.969 16.1455 102.994 16.2126 102.994 16.2964V24.6484C102.994 24.7323 102.969 24.8036 102.918 24.8623C102.868 24.9126 102.797 24.9377 102.705 24.9377H102.113ZM107.549 25.0635C106.912 25.0635 106.38 24.9419 105.952 24.6988C105.524 24.4556 105.197 24.1202 104.971 23.6925C104.744 23.2564 104.619 22.7617 104.593 22.2082C104.585 22.0657 104.581 21.8854 104.581 21.6674C104.581 21.441 104.585 21.2607 104.593 21.1265C104.619 20.5647 104.744 20.0699 104.971 19.6423C105.206 19.2146 105.537 18.8792 105.964 18.636C106.392 18.3928 106.92 18.2712 107.549 18.2712C108.178 18.2712 108.707 18.3928 109.134 18.636C109.562 18.8792 109.889 19.2146 110.115 19.6423C110.35 20.0699 110.48 20.5647 110.505 21.1265C110.514 21.2607 110.518 21.441 110.518 21.6674C110.518 21.8854 110.514 22.0657 110.505 22.2082C110.48 22.7617 110.354 23.2564 110.128 23.6925C109.902 24.1202 109.574 24.4556 109.147 24.6988C108.719 24.9419 108.187 25.0635 107.549 25.0635ZM107.549 24.095C108.069 24.095 108.484 23.9315 108.795 23.6044C109.105 23.269 109.273 22.7827 109.298 22.1454C109.306 22.0196 109.31 21.8602 109.31 21.6674C109.31 21.4745 109.306 21.3152 109.298 21.1894C109.273 20.5521 109.105 20.0699 108.795 19.7429C108.484 19.4075 108.069 19.2398 107.549 19.2398C107.029 19.2398 106.61 19.4075 106.292 19.7429C105.981 20.0699 105.818 20.5521 105.801 21.1894C105.793 21.3152 105.788 21.4745 105.788 21.6674C105.788 21.8602 105.793 22.0196 105.801 22.1454C105.818 22.7827 105.981 23.269 106.292 23.6044C106.61 23.9315 107.029 24.095 107.549 24.095ZM113.917 25.0635C113.497 25.0635 113.116 24.9797 112.772 24.812C112.428 24.6443 112.152 24.4178 111.942 24.1327C111.732 23.8476 111.627 23.5248 111.627 23.1642C111.627 22.5856 111.862 22.1244 112.332 21.7806C112.801 21.4368 113.414 21.2104 114.168 21.1014L116.042 20.8372V20.4724C116.042 20.0699 115.925 19.7555 115.69 19.5291C115.464 19.3027 115.091 19.1895 114.571 19.1895C114.193 19.1895 113.887 19.2649 113.653 19.4159C113.426 19.5668 113.267 19.7597 113.175 19.9945C113.124 20.1202 113.036 20.1831 112.91 20.1831H112.344C112.252 20.1831 112.181 20.158 112.131 20.1077C112.089 20.049 112.068 19.9819 112.068 19.9064C112.068 19.7806 112.114 19.6255 112.206 19.441C112.307 19.2565 112.458 19.0762 112.659 18.9002C112.86 18.7241 113.116 18.5773 113.426 18.4599C113.745 18.3341 114.131 18.2712 114.583 18.2712C115.087 18.2712 115.51 18.3383 115.854 18.4725C116.198 18.5983 116.466 18.7702 116.659 18.9882C116.86 19.2062 117.003 19.4536 117.086 19.7303C117.179 20.007 117.225 20.288 117.225 20.5731V24.6484C117.225 24.7323 117.195 24.8036 117.137 24.8623C117.086 24.9126 117.019 24.9377 116.936 24.9377H116.357C116.265 24.9377 116.193 24.9126 116.143 24.8623C116.093 24.8036 116.068 24.7323 116.068 24.6484V24.1076C115.959 24.2585 115.812 24.4095 115.627 24.5604C115.443 24.7029 115.212 24.8245 114.936 24.9252C114.659 25.0174 114.319 25.0635 113.917 25.0635ZM114.181 24.1202C114.525 24.1202 114.839 24.0489 115.124 23.9063C115.409 23.7554 115.632 23.5248 115.791 23.2145C115.959 22.9042 116.042 22.5143 116.042 22.0447V21.6925L114.583 21.9064C113.988 21.9902 113.539 22.1328 113.238 22.334C112.936 22.5269 112.785 22.7743 112.785 23.0762C112.785 23.3109 112.852 23.508 112.986 23.6673C113.128 23.8183 113.305 23.9315 113.514 24.0069C113.732 24.0824 113.954 24.1202 114.181 24.1202ZM121.423 25.0635C120.962 25.0635 120.563 24.9839 120.228 24.8245C119.893 24.6568 119.616 24.4346 119.398 24.1579C119.188 23.8728 119.029 23.5499 118.92 23.1894C118.819 22.8288 118.761 22.4472 118.744 22.0447C118.735 21.9106 118.731 21.7848 118.731 21.6674C118.731 21.55 118.735 21.4242 118.744 21.29C118.761 20.8959 118.819 20.5186 118.92 20.158C119.029 19.7974 119.188 19.4746 119.398 19.1895C119.616 18.9043 119.893 18.6821 120.228 18.5228C120.563 18.3551 120.962 18.2712 121.423 18.2712C121.918 18.2712 122.329 18.3593 122.656 18.5354C122.983 18.7115 123.251 18.9295 123.461 19.1895V16.2964C123.461 16.2126 123.486 16.1455 123.536 16.0952C123.595 16.0365 123.666 16.0071 123.75 16.0071H124.354C124.438 16.0071 124.505 16.0365 124.555 16.0952C124.614 16.1455 124.643 16.2126 124.643 16.2964V24.6484C124.643 24.7323 124.614 24.8036 124.555 24.8623C124.505 24.9126 124.438 24.9377 124.354 24.9377H123.788C123.695 24.9377 123.624 24.9126 123.574 24.8623C123.524 24.8036 123.498 24.7323 123.498 24.6484V24.1202C123.289 24.3885 123.016 24.6149 122.681 24.7994C122.345 24.9755 121.926 25.0635 121.423 25.0635ZM121.687 24.0447C122.106 24.0447 122.442 23.9482 122.693 23.7554C122.945 23.5625 123.134 23.3193 123.259 23.0258C123.385 22.724 123.452 22.4179 123.461 22.1076C123.469 21.9735 123.473 21.8141 123.473 21.6296C123.473 21.4368 123.469 21.2733 123.461 21.1391C123.452 20.8456 123.381 20.5563 123.247 20.2712C123.121 19.9861 122.928 19.7513 122.668 19.5668C122.417 19.3823 122.09 19.2901 121.687 19.2901C121.259 19.2901 120.92 19.3865 120.668 19.5794C120.417 19.7639 120.236 20.0112 120.127 20.3215C120.018 20.6234 119.955 20.9504 119.939 21.3026C119.93 21.5458 119.93 21.789 119.939 22.0322C119.955 22.3843 120.018 22.7156 120.127 23.0258C120.236 23.3277 120.417 23.5751 120.668 23.768C120.92 23.9524 121.259 24.0447 121.687 24.0447ZM131.542 24.9377C131.416 24.9377 131.315 24.9084 131.24 24.8497C131.173 24.791 131.118 24.7155 131.077 24.6233L128.75 18.7869C128.733 18.745 128.724 18.7031 128.724 18.6612C128.724 18.5857 128.75 18.5228 128.8 18.4725C128.85 18.4222 128.913 18.397 128.989 18.397H129.592C129.685 18.397 129.756 18.4222 129.806 18.4725C129.856 18.5228 129.886 18.5689 129.894 18.6109L131.819 23.5667L133.731 18.6109C133.747 18.5689 133.777 18.5228 133.819 18.4725C133.869 18.4222 133.94 18.397 134.032 18.397H134.649C134.716 18.397 134.775 18.4222 134.825 18.4725C134.884 18.5228 134.913 18.5857 134.913 18.6612C134.913 18.7031 134.905 18.745 134.888 18.7869L132.548 24.6233C132.515 24.7155 132.46 24.791 132.385 24.8497C132.318 24.9084 132.217 24.9377 132.083 24.9377H131.542ZM136.519 24.9377C136.435 24.9377 136.364 24.9126 136.305 24.8623C136.255 24.8036 136.23 24.7323 136.23 24.6484V18.6863C136.23 18.6025 136.255 18.5354 136.305 18.4851C136.364 18.4264 136.435 18.397 136.519 18.397H137.123C137.207 18.397 137.274 18.4264 137.324 18.4851C137.375 18.5354 137.4 18.6025 137.4 18.6863V24.6484C137.4 24.7323 137.375 24.8036 137.324 24.8623C137.274 24.9126 137.207 24.9377 137.123 24.9377H136.519ZM136.419 17.1769C136.335 17.1769 136.264 17.1518 136.205 17.1015C136.155 17.0428 136.129 16.9715 136.129 16.8876V16.2084C136.129 16.1245 136.155 16.0575 136.205 16.0071C136.264 15.9484 136.335 15.9191 136.419 15.9191H137.211C137.295 15.9191 137.362 15.9484 137.412 16.0071C137.471 16.0575 137.5 16.1245 137.5 16.2084V16.8876C137.5 16.9715 137.471 17.0428 137.412 17.1015C137.362 17.1518 137.295 17.1769 137.211 17.1769H136.419ZM141.1 25.0635C140.681 25.0635 140.299 24.9797 139.956 24.812C139.612 24.6443 139.335 24.4178 139.125 24.1327C138.916 23.8476 138.811 23.5248 138.811 23.1642C138.811 22.5856 139.046 22.1244 139.515 21.7806C139.985 21.4368 140.597 21.2104 141.352 21.1014L143.226 20.8372V20.4724C143.226 20.0699 143.108 19.7555 142.874 19.5291C142.647 19.3027 142.274 19.1895 141.754 19.1895C141.377 19.1895 141.071 19.2649 140.836 19.4159C140.61 19.5668 140.45 19.7597 140.358 19.9945C140.308 20.1202 140.22 20.1831 140.094 20.1831H139.528C139.436 20.1831 139.364 20.158 139.314 20.1077C139.272 20.049 139.251 19.9819 139.251 19.9064C139.251 19.7806 139.297 19.6255 139.389 19.441C139.49 19.2565 139.641 19.0762 139.842 18.9002C140.044 18.7241 140.299 18.5773 140.61 18.4599C140.928 18.3341 141.314 18.2712 141.767 18.2712C142.27 18.2712 142.693 18.3383 143.037 18.4725C143.381 18.5983 143.649 18.7702 143.842 18.9882C144.043 19.2062 144.186 19.4536 144.27 19.7303C144.362 20.007 144.408 20.288 144.408 20.5731V24.6484C144.408 24.7323 144.379 24.8036 144.32 24.8623C144.27 24.9126 144.203 24.9377 144.119 24.9377H143.54C143.448 24.9377 143.377 24.9126 143.327 24.8623C143.276 24.8036 143.251 24.7323 143.251 24.6484V24.1076C143.142 24.2585 142.995 24.4095 142.811 24.5604C142.626 24.7029 142.396 24.8245 142.119 24.9252C141.842 25.0174 141.503 25.0635 141.1 25.0635ZM141.364 24.1202C141.708 24.1202 142.023 24.0489 142.308 23.9063C142.593 23.7554 142.815 23.5248 142.974 23.2145C143.142 22.9042 143.226 22.5143 143.226 22.0447V21.6925L141.767 21.9064C141.171 21.9902 140.723 22.1328 140.421 22.334C140.119 22.5269 139.968 22.7743 139.968 23.0762C139.968 23.3109 140.035 23.508 140.169 23.6673C140.312 23.8183 140.488 23.9315 140.698 24.0069C140.916 24.0824 141.138 24.1202 141.364 24.1202Z" fill="white"/>
<path d="M73.4659 45.8767C72.4037 45.8767 71.4869 45.7034 70.7154 45.3568C69.9551 44.999 69.3626 44.4847 68.9377 43.8139C68.524 43.1318 68.2948 42.3045 68.2501 41.3317C68.2389 40.851 68.2333 40.3422 68.2333 39.8056C68.2333 39.2577 68.2389 38.7378 68.2501 38.2458C68.2948 37.2955 68.5296 36.4905 68.9545 35.8308C69.3793 35.1711 69.9775 34.668 70.749 34.3214C71.5204 33.9748 72.4261 33.8015 73.4659 33.8015C74.3044 33.8015 75.048 33.9077 75.6964 34.1202C76.3449 34.3214 76.8872 34.5953 77.3232 34.9419C77.7705 35.2885 78.1059 35.6687 78.3295 36.0824C78.5643 36.4961 78.6873 36.9042 78.6985 37.3067C78.7097 37.4073 78.6761 37.4912 78.5978 37.5582C78.5308 37.6253 78.4469 37.6589 78.3463 37.6589H75.8977C75.7747 37.6589 75.6797 37.6421 75.6126 37.6085C75.5567 37.5638 75.5064 37.5023 75.4616 37.4241C75.3834 37.2564 75.266 37.0831 75.1095 36.9042C74.9641 36.7141 74.7573 36.552 74.4889 36.4178C74.2318 36.2836 73.8908 36.2165 73.4659 36.2165C72.8286 36.2165 72.3255 36.3843 71.9565 36.7197C71.5987 37.0551 71.403 37.5918 71.3695 38.3297C71.336 39.2912 71.336 40.264 71.3695 41.2479C71.403 42.0305 71.6099 42.5952 71.99 42.9418C72.3702 43.2884 72.8733 43.4617 73.4994 43.4617C73.9243 43.4617 74.2989 43.389 74.6231 43.2436C74.9585 43.0983 75.2213 42.8747 75.4113 42.5728C75.6014 42.2597 75.6964 41.8628 75.6964 41.382V41.0634H74.12C73.997 41.0634 73.8908 41.0243 73.8013 40.946C73.723 40.8565 73.6839 40.7503 73.6839 40.6273V39.3863C73.6839 39.2633 73.723 39.1627 73.8013 39.0844C73.8908 38.995 73.997 38.9502 74.12 38.9502H78.3463C78.4693 38.9502 78.5699 38.995 78.6482 39.0844C78.7264 39.1627 78.7656 39.2633 78.7656 39.3863V41.2982C78.7656 42.2597 78.5475 43.0815 78.1115 43.7635C77.6754 44.4456 77.0549 44.9711 76.2499 45.34C75.4561 45.6978 74.5281 45.8767 73.4659 45.8767ZM84.6308 45.8767C83.6917 45.8767 82.8978 45.7258 82.2494 45.4239C81.6121 45.122 81.1201 44.6915 80.7735 44.1325C80.4381 43.5623 80.248 42.8859 80.2033 42.1032C80.1921 41.8796 80.1865 41.628 80.1865 41.3485C80.1865 41.0578 80.1921 40.8062 80.2033 40.5938C80.248 39.8 80.4493 39.1235 80.807 38.5645C81.1648 38.0055 81.6624 37.575 82.2997 37.2731C82.9482 36.9712 83.7252 36.8203 84.6308 36.8203C85.5477 36.8203 86.3247 36.9712 86.962 37.2731C87.6105 37.575 88.1136 38.0055 88.4714 38.5645C88.8292 39.1235 89.0305 39.8 89.0752 40.5938C89.0864 40.8062 89.092 41.0578 89.092 41.3485C89.092 41.628 89.0864 41.8796 89.0752 42.1032C89.0305 42.8859 88.8348 43.5623 88.4882 44.1325C88.1528 44.6915 87.6608 45.122 87.0123 45.4239C86.375 45.7258 85.5812 45.8767 84.6308 45.8767ZM84.6308 43.8306C85.134 43.8306 85.4974 43.6797 85.721 43.3778C85.9558 43.0759 86.0899 42.6231 86.1235 42.0193C86.1347 41.8516 86.1402 41.628 86.1402 41.3485C86.1402 41.069 86.1347 40.8454 86.1235 40.6777C86.0899 40.0851 85.9558 39.6378 85.721 39.336C85.4974 39.0229 85.134 38.8664 84.6308 38.8664C84.1389 38.8664 83.7755 39.0229 83.5407 39.336C83.3059 39.6378 83.1774 40.0851 83.155 40.6777C83.1438 40.8454 83.1382 41.069 83.1382 41.3485C83.1382 41.628 83.1438 41.8516 83.155 42.0193C83.1774 42.6231 83.3059 43.0759 83.5407 43.3778C83.7755 43.6797 84.1389 43.8306 84.6308 43.8306ZM94.8671 45.8767C93.9279 45.8767 93.1341 45.7258 92.4856 45.4239C91.8483 45.122 91.3564 44.6915 91.0098 44.1325C90.6743 43.5623 90.4843 42.8859 90.4395 42.1032C90.4284 41.8796 90.4228 41.628 90.4228 41.3485C90.4228 41.0578 90.4284 40.8062 90.4395 40.5938C90.4843 39.8 90.6855 39.1235 91.0433 38.5645C91.4011 38.0055 91.8986 37.575 92.5359 37.2731C93.1844 36.9712 93.9615 36.8203 94.8671 36.8203C95.7839 36.8203 96.561 36.9712 97.1983 37.2731C97.8468 37.575 98.3499 38.0055 98.7077 38.5645C99.0655 39.1235 99.2667 39.8 99.3114 40.5938C99.3226 40.8062 99.3282 41.0578 99.3282 41.3485C99.3282 41.628 99.3226 41.8796 99.3114 42.1032C99.2667 42.8859 99.0711 43.5623 98.7245 44.1325C98.389 44.6915 97.8971 45.122 97.2486 45.4239C96.6113 45.7258 95.8175 45.8767 94.8671 45.8767ZM94.8671 43.8306C95.3702 43.8306 95.7336 43.6797 95.9572 43.3778C96.192 43.0759 96.3262 42.6231 96.3597 42.0193C96.3709 41.8516 96.3765 41.628 96.3765 41.3485C96.3765 41.069 96.3709 40.8454 96.3597 40.6777C96.3262 40.0851 96.192 39.6378 95.9572 39.336C95.7336 39.0229 95.3702 38.8664 94.8671 38.8664C94.3752 38.8664 94.0118 39.0229 93.777 39.336C93.5422 39.6378 93.4136 40.0851 93.3913 40.6777C93.3801 40.8454 93.3745 41.069 93.3745 41.3485C93.3745 41.628 93.3801 41.8516 93.3913 42.0193C93.4136 42.6231 93.5422 43.0759 93.777 43.3778C94.0118 43.6797 94.3752 43.8306 94.8671 43.8306ZM105.254 49.3986C104.393 49.3986 103.678 49.2868 103.108 49.0632C102.549 48.8396 102.101 48.5713 101.766 48.2582C101.442 47.9451 101.207 47.6321 101.062 47.319C100.916 47.0171 100.838 46.7767 100.827 46.5979C100.816 46.4749 100.855 46.3742 100.944 46.296C101.034 46.2177 101.14 46.1786 101.263 46.1786H103.393C103.493 46.1786 103.577 46.2009 103.644 46.2457C103.723 46.3016 103.784 46.391 103.829 46.514C103.885 46.637 103.957 46.7656 104.047 46.8997C104.147 47.0339 104.282 47.1401 104.449 47.2184C104.628 47.3078 104.869 47.3526 105.17 47.3526C105.506 47.3526 105.785 47.2966 106.009 47.1848C106.233 47.0842 106.4 46.9109 106.512 46.6649C106.624 46.4301 106.68 46.1115 106.68 45.709V44.5853C106.423 44.8648 106.093 45.094 105.69 45.2729C105.288 45.4406 104.801 45.5245 104.231 45.5245C103.661 45.5245 103.158 45.4406 102.722 45.2729C102.286 45.1052 101.922 44.8537 101.632 44.5182C101.341 44.1828 101.112 43.7747 100.944 43.2939C100.788 42.8132 100.693 42.2597 100.659 41.6336C100.648 41.3429 100.648 41.0522 100.659 40.7615C100.693 40.1578 100.788 39.6155 100.944 39.1347C101.101 38.6539 101.324 38.2403 101.615 37.8937C101.917 37.5471 102.286 37.2843 102.722 37.1054C103.158 36.9153 103.661 36.8203 104.231 36.8203C104.835 36.8203 105.349 36.9377 105.774 37.1725C106.21 37.3961 106.568 37.6812 106.848 38.0278V37.4073C106.848 37.2955 106.887 37.2005 106.965 37.1222C107.043 37.0327 107.144 36.988 107.267 36.988H109.196C109.319 36.988 109.419 37.0327 109.497 37.1222C109.587 37.2005 109.632 37.2955 109.632 37.4073V45.4742C109.632 46.3239 109.458 47.0395 109.112 47.6209C108.765 48.2023 108.268 48.6439 107.619 48.9458C106.971 49.2477 106.182 49.3986 105.254 49.3986ZM105.137 43.3443C105.495 43.3443 105.785 43.266 106.009 43.1095C106.233 42.9529 106.395 42.7517 106.495 42.5057C106.607 42.2597 106.669 41.997 106.68 41.7175C106.691 41.5945 106.697 41.4212 106.697 41.1976C106.697 40.9739 106.691 40.8062 106.68 40.6944C106.669 40.4037 106.607 40.1354 106.495 39.8894C106.395 39.6434 106.233 39.4478 106.009 39.3024C105.785 39.1459 105.495 39.0676 105.137 39.0676C104.768 39.0676 104.472 39.1459 104.248 39.3024C104.036 39.459 103.879 39.6714 103.778 39.9397C103.689 40.2081 103.633 40.5044 103.611 40.8286C103.6 41.0746 103.6 41.3261 103.611 41.5833C103.633 41.9075 103.689 42.2038 103.778 42.4722C103.879 42.7405 104.036 42.9529 104.248 43.1095C104.472 43.266 104.768 43.3443 105.137 43.3443ZM112.026 45.709C111.903 45.709 111.803 45.6699 111.724 45.5916C111.646 45.5133 111.607 45.4127 111.607 45.2897V34.2208C111.607 34.0978 111.646 33.9972 111.724 33.9189C111.803 33.8406 111.903 33.8015 112.026 33.8015H114.005C114.128 33.8015 114.229 33.8406 114.307 33.9189C114.385 33.9972 114.425 34.0978 114.425 34.2208V45.2897C114.425 45.4127 114.385 45.5133 114.307 45.5916C114.229 45.6699 114.128 45.709 114.005 45.709H112.026ZM120.431 45.8767C119.112 45.8767 118.061 45.5189 117.278 44.8033C116.495 44.0878 116.087 43.0256 116.054 41.6168C116.054 41.5386 116.054 41.4379 116.054 41.315C116.054 41.192 116.054 41.0969 116.054 41.0299C116.087 40.1466 116.283 39.3919 116.641 38.7658C117.01 38.1285 117.513 37.6477 118.15 37.3234C118.798 36.988 119.553 36.8203 120.414 36.8203C121.398 36.8203 122.209 37.016 122.846 37.4073C123.494 37.7986 123.981 38.3297 124.305 39.0005C124.629 39.6714 124.791 40.4373 124.791 41.2982V41.7007C124.791 41.8237 124.747 41.9243 124.657 42.0026C124.579 42.0808 124.484 42.12 124.372 42.12H119.005C119.005 42.1312 119.005 42.1479 119.005 42.1703C119.005 42.1926 119.005 42.215 119.005 42.2374C119.016 42.5616 119.072 42.8579 119.173 43.1262C119.274 43.3946 119.43 43.607 119.643 43.7635C119.855 43.9201 120.112 43.9983 120.414 43.9983C120.638 43.9983 120.822 43.9648 120.968 43.8977C121.124 43.8194 121.253 43.7356 121.353 43.6461C121.454 43.5455 121.532 43.4617 121.588 43.3946C121.689 43.2828 121.767 43.2157 121.823 43.1933C121.89 43.1598 121.991 43.143 122.125 43.143H124.204C124.316 43.143 124.406 43.1765 124.473 43.2436C124.551 43.2995 124.584 43.3834 124.573 43.4952C124.562 43.6853 124.467 43.9145 124.288 44.1828C124.109 44.4512 123.847 44.7195 123.5 44.9878C123.165 45.245 122.74 45.4574 122.225 45.6251C121.711 45.7928 121.113 45.8767 120.431 45.8767ZM119.005 40.4596H121.84V40.4261C121.84 40.0683 121.784 39.7552 121.672 39.4869C121.571 39.2186 121.409 39.0117 121.186 38.8664C120.973 38.721 120.716 38.6484 120.414 38.6484C120.112 38.6484 119.855 38.721 119.643 38.8664C119.441 39.0117 119.285 39.2186 119.173 39.4869C119.061 39.7552 119.005 40.0683 119.005 40.4261V40.4596ZM130.538 45.709C130.415 45.709 130.314 45.6699 130.236 45.5916C130.158 45.5133 130.118 45.4127 130.118 45.2897V34.3885C130.118 34.2655 130.158 34.1649 130.236 34.0866C130.314 34.0084 130.415 33.9692 130.538 33.9692H135.234C136.162 33.9692 136.967 34.1146 137.649 34.4053C138.342 34.6848 138.879 35.1097 139.259 35.6799C139.65 36.2501 139.846 36.9712 139.846 37.8433C139.846 38.7043 139.65 39.4142 139.259 39.9733C138.879 40.5323 138.342 40.946 137.649 41.2143C136.967 41.4827 136.162 41.6168 135.234 41.6168H133.238V45.2897C133.238 45.4127 133.193 45.5133 133.104 45.5916C133.025 45.6699 132.925 45.709 132.802 45.709H130.538ZM133.188 39.3024H135.15C135.631 39.3024 136.011 39.1794 136.29 38.9335C136.581 38.6875 136.726 38.3129 136.726 37.8098C136.726 37.3849 136.603 37.0272 136.357 36.7365C136.111 36.4458 135.709 36.3004 135.15 36.3004H133.188V39.3024ZM141.687 45.709C141.564 45.709 141.463 45.6699 141.385 45.5916C141.307 45.5133 141.268 45.4127 141.268 45.2897V34.2208C141.268 34.0978 141.307 33.9972 141.385 33.9189C141.463 33.8406 141.564 33.8015 141.687 33.8015H143.666C143.789 33.8015 143.889 33.8406 143.968 33.9189C144.046 33.9972 144.085 34.0978 144.085 34.2208V45.2897C144.085 45.4127 144.046 45.5133 143.968 45.5916C143.889 45.6699 143.789 45.709 143.666 45.709H141.687ZM148.683 45.8767C148.079 45.8767 147.537 45.7649 147.056 45.5413C146.586 45.3065 146.212 44.9934 145.932 44.6021C145.653 44.2108 145.513 43.7691 145.513 43.2772C145.513 42.4833 145.837 41.8572 146.486 41.3988C147.134 40.9292 147.995 40.6106 149.068 40.4429L151.165 40.1242V39.8894C151.165 39.4869 151.081 39.1794 150.913 38.967C150.745 38.7546 150.438 38.6484 149.991 38.6484C149.678 38.6484 149.421 38.7098 149.219 38.8328C149.029 38.9558 148.878 39.1235 148.767 39.336C148.666 39.4813 148.526 39.554 148.347 39.554H146.469C146.346 39.554 146.251 39.5205 146.184 39.4534C146.117 39.3751 146.089 39.2857 146.1 39.185C146.1 38.9838 146.173 38.7546 146.318 38.4974C146.474 38.2291 146.709 37.9663 147.022 37.7092C147.335 37.452 147.738 37.2396 148.23 37.0719C148.722 36.9042 149.314 36.8203 150.008 36.8203C150.734 36.8203 151.355 36.9042 151.869 37.0719C152.383 37.2396 152.797 37.4744 153.11 37.7763C153.434 38.0781 153.675 38.4359 153.831 38.8496C153.988 39.2521 154.066 39.6993 154.066 40.1913V45.2897C154.066 45.4127 154.021 45.5133 153.932 45.5916C153.854 45.6699 153.759 45.709 153.647 45.709H151.701C151.578 45.709 151.478 45.6699 151.4 45.5916C151.321 45.5133 151.282 45.4127 151.282 45.2897V44.7027C151.137 44.9152 150.941 45.1108 150.695 45.2897C150.449 45.4686 150.159 45.6084 149.823 45.709C149.499 45.8208 149.119 45.8767 148.683 45.8767ZM149.471 43.9648C149.795 43.9648 150.086 43.8977 150.343 43.7635C150.611 43.6182 150.818 43.4002 150.964 43.1095C151.12 42.8076 151.198 42.433 151.198 41.9858V41.751L149.773 42.0026C149.247 42.092 148.862 42.2318 148.616 42.4219C148.381 42.6007 148.263 42.8132 148.263 43.0592C148.263 43.2492 148.319 43.4113 148.431 43.5455C148.543 43.6797 148.688 43.7859 148.867 43.8642C149.046 43.9312 149.247 43.9648 149.471 43.9648ZM157.307 48.8955C157.206 48.8955 157.123 48.8619 157.055 48.7949C156.988 48.7278 156.955 48.6439 156.955 48.5433C156.955 48.5209 156.955 48.4874 156.955 48.4427C156.966 48.4091 156.983 48.37 157.005 48.3253L158.313 45.1723L155.093 37.5582C155.06 37.48 155.043 37.4129 155.043 37.357C155.065 37.2564 155.11 37.1725 155.177 37.1054C155.244 37.0271 155.328 36.988 155.429 36.988H157.341C157.486 36.988 157.592 37.0271 157.659 37.1054C157.738 37.1725 157.788 37.2508 157.81 37.3402L159.739 42.2206L161.701 37.3402C161.746 37.2508 161.802 37.1725 161.869 37.1054C161.947 37.0271 162.059 36.988 162.204 36.988H164.083C164.183 36.988 164.267 37.0271 164.334 37.1054C164.412 37.1725 164.452 37.2508 164.452 37.3402C164.452 37.3961 164.435 37.4688 164.401 37.5582L159.655 48.5433C159.621 48.6327 159.566 48.711 159.487 48.7781C159.409 48.8564 159.297 48.8955 159.152 48.8955H157.307Z" fill="white"/>
<path d="M46.2742 29.6934L35.6301 18.8179L49.1725 26.74L46.2742 29.6934ZM32.853 18.1786C32.2256 18.5128 31.8066 19.1222 31.8066 19.9132V41.6006C31.8066 42.3916 32.2264 43.001 32.853 43.3352L45.2286 30.7542L32.853 18.1786ZM53.3587 29.2657L50.5183 27.59L47.3499 30.7597L50.5183 33.9293L53.4166 32.2537C54.2847 31.5515 54.2847 29.9686 53.3587 29.2657ZM35.6309 42.7022L49.1733 34.7801L46.275 31.8267L35.6309 42.7022Z" fill="white"/>
</svg>
