<svg width="342" height="219" viewBox="0 0 342 219" fill="none" xmlns="http://www.w3.org/2000/svg">
<rect width="341.746" height="218.493" rx="6.72287" fill="url(#paint0_linear_46_1035)"/>
<g opacity="0.6">
<path d="M93.0101 111.71C94.1554 110.564 94.7987 109.011 94.7987 107.392C94.7987 105.772 94.1554 104.219 93.0101 103.074" stroke="white" stroke-width="2.8012" stroke-linecap="round" stroke-linejoin="round"/>
<path d="M97.7087 114.575C99.3353 112.534 100.221 110.001 100.221 107.39C100.22 104.78 99.334 102.247 97.7069 100.206" stroke="white" stroke-width="2.8012" stroke-linecap="round" stroke-linejoin="round"/>
<path d="M101.851 117.401C104.03 114.536 105.215 111.039 105.225 107.44C105.236 103.84 104.071 100.336 101.909 97.4587" stroke="white" stroke-width="2.8012" stroke-linecap="round" stroke-linejoin="round"/>
<path d="M106.476 94.5174C109.273 98.3808 110.736 103.05 110.643 107.818C110.55 112.587 108.907 117.195 105.963 120.947" stroke="white" stroke-width="2.8012" stroke-linecap="round" stroke-linejoin="round"/>
</g>
<rect x="36.6956" y="89.3862" width="47.4803" height="34.4469" rx="7.00299" fill="url(#paint1_linear_46_1035)" stroke="url(#paint2_linear_46_1035)" stroke-width="0.560239"/>
<mask id="mask0_46_1035" style="mask-type:alpha" maskUnits="userSpaceOnUse" x="36" y="89" width="48" height="35">
<rect x="37.2559" y="89.9464" width="46.3598" height="33.3264" rx="6.44275" fill="#DCD59E" stroke="black" stroke-width="0.560239"/>
</mask>
<g mask="url(#mask0_46_1035)">
<path opacity="0.5" fill-rule="evenodd" clip-rule="evenodd" d="M61.5408 90.7764C61.1305 89.9409 59.9395 89.9409 59.5292 90.7764L55.3131 99.3632C55.3131 99.3632 57.4019 105.671 55.3131 112.866L59.5099 122.377C59.903 123.268 61.167 123.268 61.5601 122.377L65.7569 112.866C65.7569 112.866 63.6681 108.956 65.7569 99.3632L61.5408 90.7764Z" stroke="#BFB985" stroke-width="0.728311" stroke-linejoin="bevel"/>
<path opacity="0.5" d="M36.5143 99.3172H55.1806" stroke="#BFB985" stroke-width="0.728311" stroke-linejoin="bevel"/>
<path opacity="0.5" d="M65.3134 99.3172H84.5131" stroke="#BFB985" stroke-width="0.728311" stroke-linejoin="bevel"/>
<path opacity="0.5" d="M36.5143 112.762H55.1806" stroke="#BFB985" stroke-width="0.728311" stroke-linejoin="bevel"/>
<path opacity="0.5" d="M65.3134 112.762H84.5131" stroke="#BFB985" stroke-width="0.728311" stroke-linejoin="bevel"/>
</g>
<path d="M306.021 182.344C304.459 181.786 302.807 181.507 301.144 181.518C295.767 181.518 291.969 184.17 291.942 187.976C291.908 190.773 294.641 192.349 296.708 193.283C298.829 194.244 299.538 194.849 299.531 195.708C299.518 197.014 297.837 197.606 296.274 197.606C294.127 197.606 292.954 197.313 291.149 196.58L290.48 196.274L289.717 200.656C291.025 201.189 293.381 201.647 295.814 201.686C301.531 201.686 305.268 199.051 305.312 195.001C305.359 192.767 303.88 191.079 300.768 189.684C298.876 188.779 297.703 188.174 297.703 187.256C297.703 186.443 298.708 185.574 300.808 185.574C302.206 185.541 303.596 185.798 304.885 186.328L305.389 186.548L306.152 182.314L306.021 182.344ZM319.976 181.873H315.774C314.467 181.873 313.482 182.225 312.911 183.495L304.831 201.413H310.548L311.691 198.475L318.668 198.481C318.833 199.169 319.337 201.413 319.337 201.413H324.378L319.976 181.873ZM284.209 181.709H289.657L286.249 201.258H280.807L284.209 181.702V181.709ZM270.378 192.484L270.943 195.198L276.267 181.873H282.037L273.464 201.387H267.706L263.001 184.864C262.925 184.591 262.746 184.357 262.5 184.209C260.804 183.351 259.007 182.701 257.15 182.271L257.224 181.86H265.992C267.182 181.906 268.14 182.271 268.459 183.515L270.375 192.493V192.484H270.378ZM313.254 194.477L315.425 189.009C315.398 189.068 315.872 187.881 316.148 187.147L316.521 188.835L317.781 194.474H313.25V194.477H313.254Z" fill="white"/>
<path d="M26.2288 195.741L28.4742 188.736H29.9533L26.8204 198H25.6506L24.064 192.38L22.5043 198H21.3345L18.2017 188.736H19.6807L21.9127 195.741L23.5396 190H24.6019L26.2288 195.741ZM32.7812 198H31.3963V188.736H32.7812V198ZM36.6678 188.736V196.736H40.3923V198H35.2829V188.736H36.6678ZM43.3119 188.736V196.736H47.0364V198H41.927V188.736H43.3119ZM49.956 198H48.5711V188.736H49.956V198ZM59.705 198H58.2529L57.3923 195.66H53.5334L52.6729 198H51.2207L54.7301 188.736H56.2091L59.705 198ZM55.4696 190.417L53.9771 194.45H56.9486L55.4696 190.417ZM70.4056 188.736L71.5351 198H70.1636L69.3434 191.277L66.587 196.978H65.4038L62.6205 191.277L61.8003 198H60.4289L61.5583 188.736H62.7953L65.982 195.405L69.1686 188.736H70.4056ZM86.3068 188.736L87.4362 198H86.0648L85.2446 191.277L82.4882 196.978H81.305L78.5217 191.277L77.7015 198H76.33L77.4595 188.736H78.6965L81.8831 195.405L85.0698 188.736H86.3068ZM93.4548 198.161C90.8194 198.161 88.7756 196.01 88.7756 193.388C88.7756 190.753 90.8194 188.575 93.4548 188.575C96.1036 188.575 98.1608 190.753 98.1608 193.388C98.1608 196.01 96.1036 198.161 93.4548 198.161ZM93.4548 196.871C95.3506 196.871 96.7759 195.284 96.7759 193.388C96.7759 191.479 95.3506 189.865 93.4548 189.865C91.5724 189.865 90.1606 191.479 90.1606 193.388C90.1606 195.284 91.5724 196.871 93.4548 196.871ZM106.51 198H104.857L102.477 194.544H101.428V198H100.043V188.736H103.579C105.61 188.736 106.43 190.201 106.43 191.667C106.43 192.998 105.623 194.397 104.077 194.544L106.51 198ZM103.566 190H101.428V193.334H103.243C104.521 193.334 105.045 192.649 105.045 191.667C105.045 190.699 104.467 190 103.566 190ZM109.766 194.087V196.736L114.068 196.736V198L108.394 198V188.736H113.947V190H109.766V192.81H113.409V194.087L109.766 194.087ZM117.395 198H116.01V188.736H117.395V198ZM126.364 198H124.71L122.33 194.544H121.281V198H119.897V188.736H123.433C125.463 188.736 126.283 190.201 126.283 191.667C126.283 192.998 125.477 194.397 123.93 194.544L126.364 198ZM123.419 190H121.281V193.334H123.097C124.374 193.334 124.898 192.649 124.898 191.667C124.898 190.699 124.32 190 123.419 190ZM135.495 198H134.043L133.182 195.66H129.323L128.463 198H127.011L130.52 188.736H131.999L135.495 198ZM131.259 190.417L129.767 194.45H132.738L131.259 190.417Z" fill="white"/>
<path d="M37.1466 22.8151H28.0835C27.7137 22.8151 27.6344 22.8418 27.4231 23.0549L20.2378 29.7676C20.0264 29.9807 20 30.0606 20 30.4336V34.3764C20 36.6135 21.1096 37.7324 23.3288 37.7324H32.3918C32.761 37.7324 32.8403 37.7057 33.0516 37.4926L40.2376 30.7799C40.4483 30.5668 40.4747 30.4869 40.4747 30.1139V26.1718C40.4747 23.934 39.3657 22.8151 37.1466 22.8151Z" fill="white"/>
<path d="M52.881 29.431C54.6564 29.7903 55.5652 31.46 55.5652 33.0662C55.5652 35.1163 54.1069 37.2087 51.0845 37.2087H44.9765V22.6466H50.6407C53.1769 22.6466 54.7832 24.1683 54.7832 26.3875C54.7832 27.5288 54.3605 28.9026 52.881 29.431ZM52.2047 26.7468C52.2047 25.7323 51.6552 24.9503 50.535 24.9503H47.555V28.5222H50.535C51.6129 28.5222 52.2047 27.8036 52.2047 26.7468ZM47.555 34.905H50.683C52.1836 34.905 52.9656 33.9116 52.9656 32.8126C52.9656 31.777 52.2892 30.6991 50.7464 30.6991H47.555V34.905Z" fill="white"/>
<path d="M64.8813 28.7124V27.3386H67.333V37.2087H64.8813V35.6659C64.2262 36.7438 62.9158 37.4623 61.4997 37.4623C58.8578 37.4623 56.7443 35.3277 56.7443 32.2631C56.7443 29.283 58.7733 27.085 61.5631 27.085C62.9158 27.085 64.2262 27.6768 64.8813 28.7124ZM62.007 35.1798C63.5287 35.1798 64.8391 33.9116 64.8391 32.2631C64.8391 30.5723 63.4441 29.3676 61.9858 29.3676C60.4007 29.3676 59.196 30.678 59.196 32.2631C59.196 33.8482 60.4007 35.1798 62.007 35.1798Z" fill="white"/>
<path d="M75.1388 27.085C77.675 27.085 79.0911 28.7969 79.0911 31.6713V37.2087H76.6394V31.8404C76.6394 30.2553 75.6883 29.4099 74.5893 29.4099C73.4691 29.4099 72.0742 30.065 72.0742 31.9672V37.2087H69.6226V27.3386H72.0742V28.9026C72.5815 27.6556 74.1243 27.085 75.1388 27.085Z" fill="white"/>
<path d="M85.7081 31.6502L90.6537 37.2087H87.5468L83.7002 32.7281V37.2087H81.2485V21.9703H83.7002V30.4877L86.5323 27.3386H89.7237L85.7081 31.6502Z" fill="white"/>
<path d="M96.8015 27.085C99.5702 27.085 101.811 29.2619 101.811 32.2631C101.811 35.2643 99.5702 37.4623 96.8015 37.4623C95.153 37.4623 93.589 36.6169 92.8704 35.2643V37.2087H91.5178V21.9703H92.8704V29.2619C93.6101 27.9093 95.1319 27.085 96.8015 27.085ZM96.6959 36.1731C98.7882 36.1731 100.479 34.44 100.479 32.242C100.479 30.065 98.7882 28.3742 96.6959 28.3742C94.7303 28.3742 92.8704 29.9171 92.8704 32.3054C92.8704 34.588 94.6458 36.1731 96.6959 36.1731Z" fill="white"/>
<path d="M108.367 37.4623C105.556 37.4623 103.21 35.3911 103.21 32.2631C103.21 29.1351 105.556 27.085 108.367 27.085C111.178 27.085 113.546 29.1351 113.546 32.2631C113.546 35.3911 111.178 37.4623 108.367 37.4623ZM108.367 36.1731C110.439 36.1731 112.193 34.588 112.193 32.2631C112.193 29.9382 110.439 28.3742 108.367 28.3742C106.275 28.3742 104.563 29.9382 104.563 32.2631C104.563 34.588 106.275 36.1731 108.367 36.1731Z" fill="white"/>
<path d="M120.076 37.4623C117.265 37.4623 114.919 35.3911 114.919 32.2631C114.919 29.1351 117.265 27.085 120.076 27.085C122.887 27.085 125.254 29.1351 125.254 32.2631C125.254 35.3911 122.887 37.4623 120.076 37.4623ZM120.076 36.1731C122.147 36.1731 123.901 34.588 123.901 32.2631C123.901 29.9382 122.147 28.3742 120.076 28.3742C117.984 28.3742 116.272 29.9382 116.272 32.2631C116.272 34.588 117.984 36.1731 120.076 36.1731Z" fill="white"/>
<path d="M130.094 37.4623C128.382 37.4623 126.67 36.469 126.501 34.588H127.748C127.896 35.4122 128.657 36.2576 130.094 36.2576C131.51 36.2576 132.376 35.5179 132.376 34.5246C132.376 33.7214 131.827 33.193 130.812 32.9394L129.396 32.6013C128.001 32.2631 126.881 31.5445 126.881 29.896C126.881 28.2897 128.255 27.085 130.136 27.085C131.785 27.085 133.306 27.9938 133.37 29.7691H132.059C131.996 28.8815 131.129 28.2897 130.157 28.2897C129.016 28.2897 128.234 28.9871 128.234 29.9171C128.234 30.847 129.037 31.2486 129.756 31.4177L131.214 31.777C133.137 32.242 133.729 33.4044 133.729 34.5457C133.729 36.2999 132.144 37.4623 130.094 37.4623Z" fill="white"/>
<path d="M137.739 27.3386H140V28.501H137.739V37.2087H136.407V28.501H134.611V27.3386H136.407V23.64H137.739V27.3386Z" fill="white"/>
<path d="M154.021 24.5995H150V34.4671H151.758V30.9297H154.021C156.212 30.9297 157.149 29.3686 157.149 27.7646C157.149 26.1892 156.212 24.5995 154.021 24.5995ZM153.935 29.3543H151.758V26.1606H153.978C154.987 26.1606 155.39 26.9912 155.39 27.7646C155.39 28.5666 154.972 29.3543 153.935 29.3543Z" fill="white"/>
<path d="M164.842 31.0586C164.842 28.9676 163.328 27.6357 161.397 27.6357C159.48 27.6357 157.866 28.9819 157.866 31.1158C157.866 33.2068 159.394 34.6103 161.411 34.6103C162.637 34.6103 163.818 34.0947 164.438 33.1209L163.328 32.2759C162.925 32.8201 162.233 33.1065 161.498 33.1065C160.503 33.1065 159.783 32.6339 159.595 31.703L164.798 31.703C164.827 31.4596 164.842 31.2447 164.842 31.0586ZM159.595 30.543C159.797 29.5262 160.518 29.0965 161.426 29.0965C162.363 29.0965 163.069 29.6264 163.17 30.543H159.595Z" fill="white"/>
<path d="M167.314 26.4327C167.92 26.4327 168.41 25.9887 168.41 25.4159C168.41 24.8287 167.92 24.399 167.314 24.399C166.723 24.399 166.233 24.8287 166.233 25.4159C166.233 25.9887 166.723 26.4327 167.314 26.4327ZM164.547 37.7324H165.426C167.314 37.7324 168.15 36.5723 168.15 34.7105V27.7789H166.478V34.7105C166.493 35.4696 166.248 36.1857 165.368 36.1857H164.547V37.7324Z" fill="white"/>
<path d="M173.291 34.6103C175.208 34.6103 176.88 33.2211 176.88 31.1015C176.88 28.9819 175.208 27.6357 173.291 27.6357C171.375 27.6357 169.717 28.9819 169.717 31.1015C169.717 33.2211 171.375 34.6103 173.291 34.6103ZM173.291 33.0636C172.254 33.0636 171.403 32.2759 171.403 31.1015C171.403 29.9558 172.254 29.1824 173.291 29.1824C174.329 29.1824 175.194 29.9558 175.194 31.1015C175.194 32.2759 174.329 33.0636 173.291 33.0636Z" fill="white"/>
<path d="M182.031 27.7789L180.604 27.7789V25.3156H178.932V27.7789H177.721V29.1108H178.932V34.4671H180.604V29.1108H182.031V27.7789Z" fill="white"/>
<path d="M188.328 27.7789V28.6669C187.867 27.9651 186.93 27.6357 186.08 27.6357C184.307 27.6357 182.779 28.9676 182.779 31.1158C182.779 33.2497 184.321 34.6103 186.094 34.6103C186.916 34.6103 187.867 34.2809 188.328 33.5648V34.4671H190V27.7789H188.328ZM186.354 33.0492C185.316 33.0492 184.465 32.2186 184.465 31.1015C184.465 29.9844 185.316 29.1824 186.354 29.1824C187.319 29.1824 188.299 29.9272 188.299 31.1015C188.299 32.2759 187.377 33.0492 186.354 33.0492Z" fill="white"/>
<defs>
<linearGradient id="paint0_linear_46_1035" x1="-168.222" y1="-49.8177" x2="447.471" y2="308.075" gradientUnits="userSpaceOnUse">
<stop offset="0.00520833" stop-color="#25018A"/>
<stop offset="1" stop-color="#673DFD"/>
</linearGradient>
<linearGradient id="paint1_linear_46_1035" x1="60.4358" y1="89.6663" x2="76.5971" y2="136.43" gradientUnits="userSpaceOnUse">
<stop stop-color="#DCD59E"/>
<stop offset="1" stop-color="#CBBB82"/>
</linearGradient>
<linearGradient id="paint2_linear_46_1035" x1="40.1038" y1="91.5952" x2="60.4358" y2="123.553" gradientUnits="userSpaceOnUse">
<stop stop-color="#FBF3C0"/>
<stop offset="1" stop-color="#CCBC84"/>
</linearGradient>
</defs>
</svg>
