<svg width="5" height="83" viewBox="0 0 5 83" fill="none" xmlns="http://www.w3.org/2000/svg">
<path opacity="0.6" fill-rule="evenodd" clip-rule="evenodd" d="M2.18557e-07 80.5C3.39263e-07 79.1193 1.11929 78 2.5 78C3.88071 78 5 79.1193 5 80.5C5 81.8807 3.88071 83 2.5 83C1.11929 83 9.78513e-08 81.8807 2.18557e-07 80.5ZM1.35505e-06 67.5C1.47576e-06 66.1193 1.11929 65 2.5 65C3.88071 65 5 66.1193 5 67.5C5 68.8807 3.88071 70 2.5 70C1.11929 70 1.23435e-06 68.8807 1.35505e-06 67.5ZM2.5 52C1.11929 52 2.61225e-06 53.1193 2.49155e-06 54.5C2.37084e-06 55.8807 1.11929 57 2.5 57C3.88071 57 5 55.8807 5 54.5C5 53.1193 3.88071 52 2.5 52ZM3.62805e-06 41.5C3.74875e-06 40.1193 1.11929 39 2.5 39C3.88072 39 5 40.1193 5 41.5C5 42.8807 3.88072 44 2.5 44C1.11929 44 3.50734e-06 42.8807 3.62805e-06 41.5ZM2.5 26C1.11929 26 4.88525e-06 27.1193 4.76454e-06 28.5C4.64384e-06 29.8807 1.11929 31 2.5 31C3.88072 31 5 29.8807 5 28.5C5 27.1193 3.88072 26 2.5 26ZM5.90104e-06 15.5C6.02174e-06 14.1193 1.11929 13 2.50001 13C3.88072 13 5.00001 14.1193 5.00001 15.5C5.00001 16.8807 3.88072 18 2.50001 18C1.11929 18 5.78033e-06 16.8807 5.90104e-06 15.5ZM2.50001 -2.18557e-07C1.1193 -3.39263e-07 7.15824e-06 1.11929 7.03753e-06 2.5C6.91683e-06 3.88071 1.1193 5 2.50001 5C3.88072 5 5.00001 3.88071 5.00001 2.5C5.00001 1.11929 3.88072 -9.78513e-08 2.50001 -2.18557e-07Z" fill="url(#paint0_linear_46_873)"/>
<defs>
<linearGradient id="paint0_linear_46_873" x1="2.5" y1="83" x2="2.50001" y2="-2.18557e-07" gradientUnits="userSpaceOnUse">
<stop stop-color="#653DF5"/>
<stop offset="1" stop-color="#653DF5" stop-opacity="0"/>
</linearGradient>
</defs>
</svg>
