<svg width="48" height="49" viewBox="0 0 48 49" fill="none" xmlns="http://www.w3.org/2000/svg">
<rect y="0.5" width="48" height="48" rx="8" fill="#653DF5"/>
<path opacity="0.7" d="M24.4546 15V35" stroke="white" stroke-width="2" stroke-linecap="round" stroke-linejoin="round"/>
<path d="M29 18.6364H22.1818C21.3379 18.6364 20.5286 18.9716 19.9319 19.5683C19.3352 20.165 19 20.9743 19 21.8182C19 22.662 19.3352 23.4713 19.9319 24.0681C20.5286 24.6648 21.3379 25 22.1818 25H26.7273C27.5711 25 28.3805 25.3352 28.9772 25.9319C29.5739 26.5286 29.9091 27.3379 29.9091 28.1818C29.9091 29.0257 29.5739 29.835 28.9772 30.4317C28.3805 31.0284 27.5711 31.3636 26.7273 31.3636H19" stroke="white" stroke-width="2" stroke-linecap="round" stroke-linejoin="round"/>
</svg>
