<svg width="17" height="17" viewBox="0 0 17 17" fill="none" xmlns="http://www.w3.org/2000/svg">
<path d="M8.13123 0.558838C5.95645 0.558838 5.68542 0.569339 4.83431 0.605344C3.97971 0.647349 3.40163 0.779866 2.89157 0.97789C2.35773 1.17943 1.87428 1.49496 1.47489 1.90251C1.06621 2.30095 0.750501 2.78468 0.550278 3.31918C0.352253 3.82925 0.219737 4.40732 0.177731 5.26193C0.139227 6.11353 0.131226 6.38407 0.131226 8.55884C0.131226 10.7336 0.141727 11.0046 0.177731 11.8558C0.219737 12.7079 0.352253 13.2884 0.550278 13.7985C0.751813 14.3323 1.06735 14.8158 1.47489 15.2152C1.87334 15.6238 2.35707 15.9396 2.89157 16.1398C3.40163 16.3353 3.98221 16.4703 4.83431 16.5123C5.68592 16.5508 5.95645 16.5588 8.13123 16.5588C10.306 16.5588 10.577 16.5483 11.4281 16.5123C12.2802 16.4703 12.8608 16.3348 13.3709 16.1398C13.9047 15.9383 14.3882 15.6227 14.7876 15.2152C15.1968 14.8172 15.5126 14.3333 15.7122 13.7985C15.9077 13.2884 16.0427 12.7079 16.0847 11.8558C16.1232 11.0041 16.1312 10.7336 16.1312 8.55884C16.1312 6.38407 16.1207 6.11303 16.0847 5.26193C16.0427 4.40982 15.9072 3.82625 15.7122 3.31918C15.5106 2.78535 15.1951 2.30189 14.7876 1.90251C14.3895 1.4933 13.9057 1.17751 13.3709 0.97789C12.8608 0.779866 12.2802 0.647349 11.4281 0.605344C10.5765 0.566839 10.306 0.558838 8.13123 0.558838ZM8.13123 1.99902C10.267 1.99902 10.522 2.00952 11.3661 2.04552C12.1447 2.08203 12.5688 2.21204 12.8503 2.32206C13.1984 2.45054 13.5134 2.65503 13.7724 2.92063C14.0376 3.17858 14.2413 3.49288 14.3685 3.84025C14.4785 4.12178 14.6085 4.54584 14.645 5.32443C14.681 6.16854 14.6915 6.42407 14.6915 8.55934C14.6915 10.6946 14.681 10.9501 14.642 11.7942C14.6 12.5728 14.47 12.9969 14.3605 13.2784C14.209 13.654 14.04 13.9165 13.7609 14.2005C13.501 14.4645 13.1862 14.668 12.8388 14.7966C12.5608 14.9066 12.1307 15.0366 11.3491 15.0732C10.5005 15.1092 10.2505 15.1197 8.10922 15.1197C5.96796 15.1197 5.71842 15.1092 4.86882 15.0702C4.09022 15.0281 3.66067 14.8981 3.37913 14.7886C2.99908 14.6371 2.73855 14.4681 2.45952 14.189C2.17798 13.9075 1.99896 13.6395 1.86094 13.2669C1.74893 12.9889 1.62091 12.5588 1.57941 11.7772C1.5509 10.9386 1.5374 10.6786 1.5374 8.54734C1.5374 6.41707 1.5509 6.15654 1.57941 5.30743C1.62091 4.52583 1.74893 4.09678 1.86094 3.81775C1.99896 3.4372 2.17848 3.17717 2.45952 2.89563C2.73805 2.6171 2.99908 2.43707 3.37913 2.29606C3.66067 2.18654 4.07972 2.05653 4.86132 2.01752C5.70992 1.98702 5.95995 1.97602 8.09822 1.97602L8.13123 1.99902ZM8.13123 4.45282C7.59183 4.45263 7.05768 4.55872 6.55931 4.76505C6.06093 4.97138 5.6081 5.27389 5.22669 5.6553C4.84528 6.03671 4.54277 6.48954 4.33644 6.98792C4.13011 7.48629 4.02402 8.02044 4.02421 8.55984C4.02402 9.09923 4.13011 9.63338 4.33644 10.1318C4.54277 10.6301 4.84528 11.083 5.22669 11.4644C5.6081 11.8458 6.06093 12.1483 6.55931 12.3546C7.05768 12.561 7.59183 12.667 8.13123 12.6669C8.67062 12.667 9.20477 12.561 9.70315 12.3546C10.2015 12.1483 10.6544 11.8458 11.0358 11.4644C11.4172 11.083 11.7197 10.6301 11.926 10.1318C12.1323 9.63338 12.2384 9.09923 12.2382 8.55984C12.2384 8.02044 12.1323 7.48629 11.926 6.98792C11.7197 6.48954 11.4172 6.03671 11.0358 5.6553C10.6544 5.27389 10.2015 4.97138 9.70315 4.76505C9.20477 4.55872 8.67062 4.45263 8.13123 4.45282ZM8.13123 11.2267C6.65704 11.2267 5.46439 10.034 5.46439 8.55984C5.46439 7.08565 6.65704 5.893 8.13123 5.893C9.60541 5.893 10.7981 7.08565 10.7981 8.55984C10.7981 10.034 9.60541 11.2267 8.13123 11.2267ZM13.3639 4.2888C13.3636 4.54367 13.2622 4.788 13.0819 4.96813C12.9016 5.14825 12.6571 5.24942 12.4023 5.24942C12.2762 5.24942 12.1515 5.2246 12.035 5.17638C11.9186 5.12815 11.8128 5.05747 11.7237 4.96836C11.6346 4.87925 11.5639 4.77346 11.5157 4.65704C11.4675 4.54061 11.4426 4.41582 11.4426 4.2898C11.4426 4.16379 11.4675 4.039 11.5157 3.92257C11.5639 3.80615 11.6346 3.70036 11.7237 3.61125C11.8128 3.52214 11.9186 3.45146 12.035 3.40323C12.1515 3.35501 12.2762 3.33018 12.4023 3.33018C12.9308 3.33018 13.3639 3.76024 13.3639 4.2888Z" fill="white"/>
</svg>
