<svg width="176" height="24" viewBox="0 0 176 24" fill="none" xmlns="http://www.w3.org/2000/svg">
<path d="M25.1483 1.2391H11.8559C11.3134 1.2391 11.1971 1.27817 10.8872 1.59075L0.34873 11.4361C0.0387478 11.7486 0 11.8659 0 12.4129V18.1956C0 21.4767 1.62741 23.1178 4.88222 23.1178H18.1747C18.7162 23.1178 18.8324 23.0787 19.1424 22.7661L29.6818 12.9208C29.9908 12.6082 30.0295 12.491 30.0295 11.944V6.16224C30.0295 2.88015 28.4031 1.2391 25.1483 1.2391Z" fill="white"/>
<path d="M48.2255 10.9424C50.8294 11.4693 52.1623 13.9182 52.1623 16.2741C52.1623 19.2809 50.0234 22.3497 45.5907 22.3497H36.6322V0.991944H44.9397C48.6595 0.991944 51.0153 3.22382 51.0153 6.47863C51.0153 8.15254 50.3954 10.1674 48.2255 10.9424ZM47.2336 7.0056C47.2336 5.51768 46.4276 4.37075 44.7847 4.37075H40.414V9.60945H44.7847C46.3656 9.60945 47.2336 8.55551 47.2336 7.0056ZM40.414 18.9709H45.0017C47.2026 18.9709 48.3495 17.514 48.3495 15.9021C48.3495 14.3832 47.3576 12.8023 45.0947 12.8023H40.414V18.9709Z" fill="white"/>
<path d="M65.826 9.88844V7.87355H69.4218V22.3497H65.826V20.0869C64.865 21.6678 62.9431 22.7217 60.8662 22.7217C56.9915 22.7217 53.8916 19.5909 53.8916 15.0961C53.8916 10.7254 56.8675 7.50157 60.9592 7.50157C62.9431 7.50157 64.865 8.36952 65.826 9.88844ZM61.6102 19.3739C63.8421 19.3739 65.764 17.514 65.764 15.0961C65.764 12.6163 63.7181 10.8494 61.5792 10.8494C59.2543 10.8494 57.4874 12.7713 57.4874 15.0961C57.4874 17.421 59.2543 19.3739 61.6102 19.3739Z" fill="white"/>
<path d="M80.8703 7.50157C84.5901 7.50157 86.667 10.0124 86.667 14.2282V22.3497H83.0712V14.4762C83.0712 12.1513 81.6762 10.9114 80.0643 10.9114C78.4214 10.9114 76.3755 11.8723 76.3755 14.6622V22.3497H72.7797V7.87355H76.3755V10.1674C77.1195 8.33852 79.3824 7.50157 80.8703 7.50157Z" fill="white"/>
<path d="M96.3718 14.1972L103.625 22.3497H99.0687L93.427 15.7781V22.3497H89.8312V0H93.427V12.4923L97.5808 7.87355H102.261L96.3718 14.1972Z" fill="white"/>
<path d="M112.642 7.50157C116.703 7.50157 119.989 10.6944 119.989 15.0961C119.989 19.4979 116.703 22.7217 112.642 22.7217C110.224 22.7217 107.931 21.4818 106.877 19.4979V22.3497H104.893V0H106.877V10.6944C107.962 8.7105 110.193 7.50157 112.642 7.50157ZM112.487 20.8308C115.556 20.8308 118.036 18.289 118.036 15.0651C118.036 11.8723 115.556 9.39247 112.487 9.39247C109.604 9.39247 106.877 11.6553 106.877 15.1581C106.877 18.5059 109.48 20.8308 112.487 20.8308Z" fill="white"/>
<path d="M129.606 22.7217C125.483 22.7217 122.042 19.6839 122.042 15.0961C122.042 10.5084 125.483 7.50157 129.606 7.50157C133.728 7.50157 137.2 10.5084 137.2 15.0961C137.2 19.6839 133.728 22.7217 129.606 22.7217ZM129.606 20.8308C132.643 20.8308 135.216 18.5059 135.216 15.0961C135.216 11.6863 132.643 9.39247 129.606 9.39247C126.537 9.39247 124.026 11.6863 124.026 15.0961C124.026 18.5059 126.537 20.8308 129.606 20.8308Z" fill="white"/>
<path d="M146.778 22.7217C142.655 22.7217 139.215 19.6839 139.215 15.0961C139.215 10.5084 142.655 7.50157 146.778 7.50157C150.901 7.50157 154.373 10.5084 154.373 15.0961C154.373 19.6839 150.901 22.7217 146.778 22.7217ZM146.778 20.8308C149.816 20.8308 152.389 18.5059 152.389 15.0961C152.389 11.6863 149.816 9.39247 146.778 9.39247C143.709 9.39247 141.198 11.6863 141.198 15.0961C141.198 18.5059 143.709 20.8308 146.778 20.8308Z" fill="white"/>
<path d="M161.471 22.7217C158.96 22.7217 156.449 21.2648 156.201 18.5059H158.03C158.247 19.7149 159.363 20.9548 161.471 20.9548C163.548 20.9548 164.819 19.8699 164.819 18.413C164.819 17.235 164.013 16.4601 162.525 16.0881L160.448 15.5921C158.402 15.0961 156.759 14.0422 156.759 11.6243C156.759 9.26847 158.774 7.50157 161.533 7.50157C163.951 7.50157 166.183 8.8345 166.276 11.4383H164.354C164.261 10.1364 162.99 9.26847 161.564 9.26847C159.89 9.26847 158.743 10.2914 158.743 11.6553C158.743 13.0193 159.921 13.6082 160.975 13.8562L163.114 14.3832C165.935 15.0651 166.802 16.77 166.802 18.444C166.802 21.0168 164.478 22.7217 161.471 22.7217Z" fill="white"/>
<path d="M172.683 7.87355H176V9.57845H172.683V22.3497H170.73V9.57845H168.095V7.87355H170.73V2.44886H172.683V7.87355Z" fill="white"/>
</svg>
