<svg width="20" height="17" viewBox="0 0 20 17" fill="none" xmlns="http://www.w3.org/2000/svg">
<path d="M19.8259 2.45944C19.1016 2.77186 18.3135 2.99672 17.5016 3.08429C18.3445 2.58355 18.9757 1.79246 19.2768 0.859439C18.4858 1.32995 17.6194 1.65987 16.7158 1.83459C16.3382 1.43086 15.8814 1.10924 15.3741 0.889753C14.8667 0.670268 14.3195 0.557627 13.7667 0.558848C11.53 0.558848 9.73122 2.37186 9.73122 4.59671C9.73122 4.90914 9.76909 5.22157 9.83063 5.52216C6.48152 5.34701 3.49454 3.74701 1.50874 1.29731C1.14691 1.91533 0.957293 2.61903 0.959627 3.33518C0.959627 4.73636 1.67205 5.97186 2.75844 6.69849C2.11822 6.67327 1.49298 6.4973 0.933592 6.18488V6.23458C0.933592 8.19671 2.32057 9.82275 4.16909 10.1967C3.82201 10.2869 3.46497 10.333 3.10637 10.334C2.84365 10.334 2.59513 10.308 2.34424 10.2725C2.85548 11.8725 4.34424 13.0346 6.11702 13.0724C4.73004 14.1588 2.99276 14.7979 1.10637 14.7979C0.767912 14.7979 0.455486 14.7861 0.131226 14.7482C1.92057 15.8961 4.04365 16.5588 6.33004 16.5588C13.7525 16.5588 17.8141 10.4097 17.8141 5.07245C17.8141 4.89731 17.8141 4.72216 17.8022 4.54701C18.588 3.97186 19.2768 3.25944 19.8259 2.45944Z" fill="white"/>
</svg>
