<svg width="23" height="17" viewBox="0 0 23 17" fill="none" xmlns="http://www.w3.org/2000/svg">
<path d="M22.0622 8.48989C22.0622 8.43572 22.0622 8.37416 22.0597 8.30276C22.0572 8.10331 22.0523 7.87924 22.0474 7.6404C22.0277 6.95342 21.9932 6.2689 21.9391 5.62378C21.8652 4.73489 21.7568 3.99374 21.6091 3.43726C21.4532 2.85653 21.1476 2.32689 20.7229 1.90127C20.2981 1.47566 19.7691 1.16899 19.1887 1.0119C18.4918 0.824766 17.1277 0.709038 15.2071 0.637631C14.2936 0.603159 13.3161 0.580998 12.3386 0.568687C11.9963 0.563762 11.6787 0.5613 11.393 0.558838H10.6691C10.3835 0.5613 10.0659 0.563762 9.72361 0.568687C8.74608 0.580998 7.76854 0.603159 6.85503 0.637631C4.93444 0.7115 3.56787 0.827228 2.8735 1.0119C2.29289 1.1686 1.76367 1.47515 1.33886 1.90082C0.914051 2.32649 0.608581 2.85634 0.453063 3.43726C0.302862 3.99374 0.196984 4.73489 0.123115 5.62378C0.0689443 6.2689 0.0344721 6.95342 0.0147737 7.6404C0.00738685 7.87924 0.00492455 8.10331 0.00246226 8.30276C0.00246226 8.37416 0 8.43572 0 8.48989V8.62778C0 8.68195 -3.76083e-08 8.74351 0.00246226 8.81492C0.00492455 9.01436 0.00984915 9.23843 0.0147737 9.47727C0.0344721 10.1643 0.0689443 10.8488 0.123115 11.4939C0.196984 12.3828 0.305325 13.1239 0.453063 13.6804C0.768236 14.8599 1.69406 15.7906 2.8735 16.1058C3.56787 16.2929 4.93444 16.4086 6.85503 16.48C7.76854 16.5145 8.74608 16.5367 9.72361 16.549C10.0659 16.5539 10.3835 16.5564 10.6691 16.5588H11.393C11.6787 16.5564 11.9963 16.5539 12.3386 16.549C13.3161 16.5367 14.2936 16.5145 15.2071 16.48C17.1277 16.4062 18.4943 16.2904 19.1887 16.1058C20.3681 15.7906 21.2939 14.8623 21.6091 13.6804C21.7593 13.1239 21.8652 12.3828 21.9391 11.4939C21.9932 10.8488 22.0277 10.1643 22.0474 9.47727C22.0548 9.23843 22.0572 9.01436 22.0597 8.81492C22.0597 8.74351 22.0622 8.68195 22.0622 8.62778V8.48989ZM20.2893 8.61793C20.2893 8.66964 20.2893 8.72627 20.2869 8.79276C20.2844 8.98481 20.2795 9.19657 20.2745 9.42557C20.2573 10.0805 20.2228 10.7355 20.1711 11.3437C20.1046 12.1366 20.0111 12.7866 19.8954 13.2224C19.7427 13.7912 19.2945 14.2418 18.7282 14.392C18.2111 14.5299 16.9086 14.6407 15.1382 14.7072C14.2419 14.7417 13.2767 14.7638 12.3139 14.7761C11.9766 14.7811 11.6639 14.7835 11.3832 14.7835H10.679L9.74823 14.7761C8.78547 14.7638 7.82271 14.7417 6.92398 14.7072C5.15359 14.6382 3.84857 14.5299 3.33395 14.392C2.76762 14.2394 2.31948 13.7912 2.16682 13.2224C2.05109 12.7866 1.95753 12.1366 1.89104 11.3437C1.83934 10.7355 1.80733 10.0805 1.78763 9.42557C1.78024 9.19657 1.77778 8.98235 1.77532 8.79276C1.77532 8.72627 1.77285 8.66718 1.77285 8.61793V8.49974C1.77285 8.44803 1.77285 8.3914 1.77532 8.32492C1.77778 8.13286 1.7827 7.9211 1.78763 7.69211C1.80486 7.03714 1.83934 6.38217 1.89104 5.77398C1.95753 4.98112 2.05109 4.33108 2.16682 3.89525C2.31948 3.32646 2.76762 2.87586 3.33395 2.72566C3.85103 2.58777 5.15359 2.47697 6.92398 2.41048C7.82025 2.37601 8.78547 2.35385 9.74823 2.34154C10.0856 2.33662 10.3983 2.33415 10.679 2.33415H11.3832L12.3139 2.34154C13.2767 2.35385 14.2395 2.37601 15.1382 2.41048C16.9086 2.47943 18.2136 2.58777 18.7282 2.72566C19.2945 2.87832 19.7427 3.32646 19.8954 3.89525C20.0111 4.33108 20.1046 4.98112 20.1711 5.77398C20.2228 6.38217 20.2548 7.03714 20.2745 7.69211C20.2819 7.9211 20.2844 8.13532 20.2869 8.32492C20.2869 8.3914 20.2893 8.4505 20.2893 8.49974V8.61793ZM8.83964 11.8583L14.5522 8.53421L8.83964 5.25936V11.8583Z" fill="white"/>
</svg>
